<svg width="32" height="32" viewBox="0 0 32 32" fill="none" xmlns="http://www.w3.org/2000/svg">
<path opacity="0.4" d="M21.5866 2.66663H10.4266C5.57326 2.66663 2.67993 5.55996 2.67993 10.4133V21.5733C2.67993 26.4266 5.57326 29.3199 10.4266 29.3199H21.5866C26.4399 29.3199 29.3333 26.4266 29.3333 21.5733V10.4133C29.3333 5.55996 26.4399 2.66663 21.5866 2.66663Z" fill="#2B45D8"/>
<path d="M13.4801 14.8667H9.94674C9.10674 14.8667 8.42676 15.5466 8.42676 16.3866V23.2133H13.4801V14.8667V14.8667Z" fill="#2B45D8"/>
<path opacity="0.4" d="M17.0135 8.79993H14.9868C14.1468 8.79993 13.4668 9.47995 13.4668 10.3199V23.2H18.5201V10.3199C18.5201 9.47995 17.8535 8.79993 17.0135 8.79993Z" fill="#2B45D8"/>
<path d="M22.0668 17.1333H18.5334V23.2H23.5868V18.6533C23.5735 17.8133 22.8934 17.1333 22.0668 17.1333Z" fill="#2B45D8"/>
</svg>
