<svg width="32" height="32" viewBox="0 0 32 32" fill="none" xmlns="http://www.w3.org/2000/svg">
<g clip-path="url(#clip0_1294_1053)">
<path opacity="0.4" d="M16.0001 29.3333C23.3639 29.3333 29.3334 23.3638 29.3334 16C29.3334 8.63616 23.3639 2.66663 16.0001 2.66663C8.63628 2.66663 2.66675 8.63616 2.66675 16C2.66675 23.3638 8.63628 29.3333 16.0001 29.3333Z" fill="#2B45D8"/>
<path d="M23 13.5733V17.08C23 17.3067 22.9867 17.52 22.96 17.7333C22.76 20.0933 21.36 21.2667 18.8 21.2667H18.4533C18.24 21.2667 18.0267 21.3733 17.8934 21.5467L16.84 22.9467C16.3733 23.5733 15.6267 23.5733 15.16 22.9467L14.1066 21.5467C13.9866 21.4 13.7333 21.2667 13.5467 21.2667H13.2C10.4 21.2667 9 20.5733 9 17.0666V13.56C9 11 10.1867 9.59998 12.5333 9.39998C12.7467 9.37332 12.96 9.35999 13.1867 9.35999H18.7867C21.6 9.38665 23 10.7867 23 13.5733Z" fill="#2B45D8"/>
</g>
<defs>
<clipPath id="clip0_1294_1053">
<rect width="32" height="32" fill="white"/>
</clipPath>
</defs>
</svg>
