<svg width="32" height="32" viewBox="0 0 32 32" fill="none" xmlns="http://www.w3.org/2000/svg">
<path opacity="0.4" d="M29.3334 12.2799V19.7199C29.3334 25.1866 27.6667 26.8533 22.2 26.8533H13.2134V22.8266C13.2134 22.3199 12.7867 21.8933 12.28 21.8933V10.1066C12.7867 10.1066 13.2134 9.67994 13.2134 9.17327V5.14661H22.2C27.6667 5.14661 29.3334 6.81327 29.3334 12.2799Z" fill="#2B45D8"/>
<path d="M24.6268 15.8667C24.8534 15.6534 24.9334 15.32 24.8401 15.0267C24.7468 14.72 24.4934 14.5067 24.1734 14.4667L22.4668 14.2134C22.4001 14.2 22.3468 14.16 22.3201 14.1067L21.5601 12.56C21.4268 12.28 21.1334 12.1067 20.8268 12.1067C20.5068 12.1067 20.2268 12.28 20.0801 12.56L19.3201 14.1067C19.2934 14.1734 19.2268 14.2134 19.1601 14.2134L17.4534 14.4667C17.1468 14.5067 16.8801 14.7334 16.7868 15.0267C16.6934 15.3334 16.7734 15.6534 17.0001 15.8667L18.2401 17.0667C18.2934 17.1067 18.3068 17.1867 18.2934 17.2534L18.0001 18.9467C17.9468 19.2534 18.0668 19.5734 18.3334 19.7467C18.4801 19.8534 18.6401 19.9067 18.8134 19.9067C18.9468 19.9067 19.0801 19.88 19.2001 19.8134L20.7334 19.0134C20.7868 18.9867 20.8668 18.9867 20.9201 19.0134L22.4534 19.8134C22.7334 19.96 23.0668 19.9334 23.3201 19.7467C23.5734 19.56 23.7068 19.2534 23.6534 18.9334L23.3601 17.24C23.3468 17.1734 23.3734 17.1067 23.4134 17.0534L24.6268 15.8667Z" fill="#2B45D8"/>
<path d="M12.2801 10.1066V21.8933C11.7734 21.8933 11.3467 22.3199 11.3467 22.8266V26.8533H9.80008C4.53341 26.8533 2.80008 25.2799 2.68008 20.3733C2.66674 20.1199 2.77341 19.8799 2.94674 19.7066C3.12008 19.5199 3.37341 19.4266 3.61341 19.4266C5.48008 19.4266 7.01341 17.8933 7.01341 16.0133C7.01341 14.1333 5.48008 12.5866 3.61341 12.5866C3.34674 12.5866 3.12008 12.4933 2.94674 12.3066C2.77341 12.1333 2.66674 11.8799 2.68008 11.6399C2.80008 6.71994 4.53341 5.14661 9.80008 5.14661H11.3467V9.17327C11.3467 9.69327 11.7734 10.1066 12.2801 10.1066Z" fill="#2B45D8"/>
</svg>
