<svg width="32" height="32" viewBox="0 0 32 32" fill="none" xmlns="http://www.w3.org/2000/svg">
<g clip-path="url(#clip0_1294_1052)">
<path d="M27.3333 22.3333H24.3333V19.3333C24.3333 18.7866 23.8799 18.3333 23.3333 18.3333C22.7866 18.3333 22.3333 18.7866 22.3333 19.3333V22.3333H19.3333C18.7866 22.3333 18.3333 22.7866 18.3333 23.3333C18.3333 23.88 18.7866 24.3333 19.3333 24.3333H22.3333V27.3333C22.3333 27.88 22.7866 28.3333 23.3333 28.3333C23.8799 28.3333 24.3333 27.88 24.3333 27.3333V24.3333H27.3333C27.8799 24.3333 28.3333 23.88 28.3333 23.3333C28.3333 22.7866 27.8799 22.3333 27.3333 22.3333Z" fill="#2B45D8"/>
<path opacity="0.4" d="M29.3333 11.36V5.30669C29.3333 3.42669 28.48 2.66669 26.36 2.66669H20.9733C18.8533 2.66669 18 3.42669 18 5.30669V11.3467C18 13.24 18.8533 13.9867 20.9733 13.9867H26.36C28.48 14 29.3333 13.24 29.3333 11.36Z" fill="#2B45D8"/>
<path d="M14.0001 11.36V5.30669C14.0001 3.42669 13.1467 2.66669 11.0267 2.66669H5.64008C3.52008 2.66669 2.66675 3.42669 2.66675 5.30669V11.3467C2.66675 13.24 3.52008 13.9867 5.64008 13.9867H11.0267C13.1467 14 14.0001 13.24 14.0001 11.36Z" fill="#2B45D8"/>
<path opacity="0.4" d="M14.0001 26.36V20.9733C14.0001 18.8533 13.1467 18 11.0267 18H5.64008C3.52008 18 2.66675 18.8533 2.66675 20.9733V26.36C2.66675 28.48 3.52008 29.3333 5.64008 29.3333H11.0267C13.1467 29.3333 14.0001 28.48 14.0001 26.36Z" fill="#2B45D8"/>
</g>
<defs>
<clipPath id="clip0_1294_1052">
<rect width="32" height="32" fill="white"/>
</clipPath>
</defs>
</svg>
