<svg width="32" height="32" viewBox="0 0 32 32" fill="none" xmlns="http://www.w3.org/2000/svg">
<path d="M9.33325 7.66663C8.78659 7.66663 8.33325 7.21329 8.33325 6.66663V2.66663C8.33325 2.11996 8.78659 1.66663 9.33325 1.66663C9.87992 1.66663 10.3333 2.11996 10.3333 2.66663V6.66663C10.3333 7.21329 9.87992 7.66663 9.33325 7.66663Z" fill="#2B45D8"/>
<path d="M20 7.66663C19.4533 7.66663 19 7.21329 19 6.66663V2.66663C19 2.11996 19.4533 1.66663 20 1.66663C20.5467 1.66663 21 2.11996 21 2.66663V6.66663C21 7.21329 20.5467 7.66663 20 7.66663Z" fill="#2B45D8"/>
<path opacity="0.4" d="M26.6667 11.3333V22.6666C26.6667 26.6666 24.6667 29.3333 20.0001 29.3333H9.33341C4.66675 29.3333 2.66675 26.6666 2.66675 22.6666V11.3333C2.66675 7.33329 4.66675 4.66663 9.33341 4.66663H20.0001C24.6667 4.66663 26.6667 7.33329 26.6667 11.3333Z" fill="#2B45D8"/>
<path d="M17.3333 15.6666H9.33325C8.78659 15.6666 8.33325 15.2133 8.33325 14.6666C8.33325 14.12 8.78659 13.6666 9.33325 13.6666H17.3333C17.8799 13.6666 18.3333 14.12 18.3333 14.6666C18.3333 15.2133 17.8799 15.6666 17.3333 15.6666Z" fill="#2B45D8"/>
<path d="M13.3333 22.3334H9.33325C8.78659 22.3334 8.33325 21.88 8.33325 21.3334C8.33325 20.7867 8.78659 20.3334 9.33325 20.3334H13.3333C13.8799 20.3334 14.3333 20.7867 14.3333 21.3334C14.3333 21.88 13.8799 22.3334 13.3333 22.3334Z" fill="#2B45D8"/>
<path d="M28.0001 18.1733C26.8134 17.2266 25.3067 16.6666 23.6667 16.6666C22.0267 16.6666 20.4934 17.2399 19.2934 18.2133C17.6801 19.4799 16.6667 21.4666 16.6667 23.6666C16.6667 24.9733 17.0401 26.2266 17.6801 27.2666C18.1734 28.08 18.8134 28.7866 19.5734 29.3333C20.7201 30.1733 22.1334 30.6666 23.6667 30.6666C25.4401 30.6666 27.0401 30.0133 28.2668 28.92C28.8134 28.4666 29.2801 27.9066 29.6534 27.2666C30.2934 26.2266 30.6667 24.9733 30.6667 23.6666C30.6667 21.44 29.6267 19.4533 28.0001 18.1733ZM23.6667 27C23.6667 25.16 22.1734 23.6666 20.3334 23.6666C22.1734 23.6666 23.6667 22.1733 23.6667 20.3333C23.6667 22.1733 25.1601 23.6666 27.0001 23.6666C25.1601 23.6666 23.6667 25.16 23.6667 27Z" fill="#2B45D8"/>
</svg>
