<svg width="156" height="24" viewBox="0 0 156 24" fill="none" xmlns="http://www.w3.org/2000/svg">
<g clip-path="url(#clip0_2101_10408)">
<path d="M31.1016 19.081C31.1016 21.7364 28.9393 23.8987 26.2839 23.8987H0.0712891V4.8177C0.0712891 2.1623 2.23359 0 4.88899 0H31.1016V19.081Z" fill="white"/>
<path d="M22.5664 14.1873H24.5579C24.6149 14.1873 24.7476 14.1684 24.8046 14.1684C25.184 14.0925 25.5064 13.7511 25.5064 13.2769C25.5064 12.8217 25.184 12.4803 24.8046 12.3855C24.7476 12.3665 24.6339 12.3665 24.558 12.3665H22.5665L22.5664 14.1873Z" fill="url(#paint0_linear_2101_10408)"/>
<path d="M24.3304 1.61206C22.4337 1.61206 20.8783 3.14855 20.8783 5.06418V8.64903H25.753C25.8668 8.64903 25.9995 8.64903 26.0943 8.66794C27.1944 8.72491 28.01 9.29388 28.01 10.2801C28.01 11.0578 27.46 11.7216 26.4357 11.8545V11.8923C27.5548 11.9682 28.4083 12.5941 28.4083 13.5614C28.4083 14.6047 27.46 15.2875 26.2081 15.2875H20.8594V22.3054H25.9236C27.8203 22.3054 29.3757 20.769 29.3757 18.8533V1.61206H24.3304Z" fill="url(#paint1_linear_2101_10408)"/>
<path d="M25.2597 10.5078C25.2597 10.0525 24.9373 9.74897 24.5579 9.692C24.5201 9.692 24.4252 9.6731 24.3683 9.6731H22.5664V11.3422H24.3683C24.4253 11.3422 24.539 11.3422 24.558 11.3233C24.9374 11.2663 25.2599 10.9629 25.2599 10.5076" fill="url(#paint2_linear_2101_10408)"/>
<path d="M5.24935 1.61206C3.35262 1.61206 1.79723 3.14855 1.79723 5.06418V13.5805C2.76462 14.0546 3.76984 14.3581 4.77517 14.3581C5.97008 14.3581 6.61493 13.6374 6.61493 12.6511V8.63H9.57384V12.6321C9.57384 14.1873 8.60656 15.4582 5.32523 15.4582C3.33371 15.4582 1.77832 15.0219 1.77832 15.0219V22.2864H6.84256C8.73929 22.2864 10.2947 20.75 10.2947 18.8342V1.6123L5.24935 1.61206Z" fill="url(#paint3_linear_2101_10408)"/>
<path d="M14.7898 1.61206C12.893 1.61206 11.3376 3.14855 11.3376 5.06418V9.57836C12.2103 8.83861 13.7276 8.36442 16.1744 8.47824C17.4831 8.53521 18.8866 8.89558 18.8866 8.89558V10.3561C18.1848 9.9957 17.3504 9.67315 16.2692 9.59727C14.4104 9.46454 13.2913 10.375 13.2913 11.9682C13.2913 13.5804 14.4104 14.4908 16.2692 14.3391C17.3504 14.2632 18.1849 13.9219 18.8866 13.5804V15.0409C18.8866 15.0409 17.502 15.4013 16.1744 15.4582C13.7276 15.5719 12.2103 15.0978 11.3378 14.3581V22.3243H16.402C18.2987 22.3243 19.854 20.7879 19.854 18.8722V1.6123L14.7898 1.61206Z" fill="url(#paint4_linear_2101_10408)"/>
</g>
<g clip-path="url(#clip1_2101_10408)">
<path d="M79.385 7.64188C79.3428 10.9718 82.3526 12.8299 84.6199 13.9348C86.9494 15.0683 87.7318 15.7952 87.7226 16.809C87.7052 18.3603 85.8645 19.0451 84.142 19.0717C81.1367 19.1182 79.3894 18.2603 78.0003 17.6114L76.9177 22.6772C78.3114 23.3194 80.8921 23.8795 83.5683 23.9041C89.8502 23.9041 93.96 20.8031 93.9822 15.9953C94.0068 9.89355 85.5423 9.55581 85.6002 6.82849C85.6201 6.0015 86.4092 5.11899 88.1384 4.89461C88.9943 4.78126 91.357 4.69451 94.0357 5.92805L95.0871 1.02685C93.6465 0.502319 91.7951 5.34058e-05 89.4899 5.34058e-05C83.5772 5.34058e-05 79.4186 3.14319 79.385 7.64188ZM105.19 0.422222C104.043 0.422222 103.076 1.09133 102.645 2.11813L93.6711 23.5441H99.9484L101.198 20.0918H108.868L109.593 23.5441H115.126L110.298 0.422222H105.19ZM106.068 6.66829L107.879 15.3508H102.918L106.068 6.66829ZM71.7741 0.422512L66.8261 23.5438H72.8079L77.7536 0.421934L71.7741 0.422512ZM62.9251 0.422512L56.699 16.1599L54.1804 2.77856C53.8849 1.28478 52.7179 0.422222 51.4219 0.422222H41.2441L41.1016 1.09364C43.191 1.54704 45.565 2.27832 47.0032 3.06078C47.8834 3.53875 48.1344 3.95658 48.4236 5.09239L53.1938 23.5441H59.5151L69.2064 0.422222L62.9251 0.422512Z" fill="url(#paint5_linear_2101_10408)"/>
</g>
<g clip-path="url(#clip2_2101_10408)">
<path d="M130.739 23.8808V22.2923C130.739 21.6833 130.368 21.2863 129.732 21.2863C129.415 21.2863 129.07 21.3921 128.832 21.7363C128.647 21.4451 128.382 21.2863 127.985 21.2863C127.72 21.2863 127.456 21.3656 127.244 21.6569V21.3392H126.688V23.8808H127.244V22.4776C127.244 22.0276 127.482 21.8157 127.853 21.8157C128.223 21.8157 128.409 22.054 128.409 22.4776V23.8808H128.965V22.4776C128.965 22.0276 129.229 21.8157 129.574 21.8157C129.944 21.8157 130.13 22.054 130.13 22.4776V23.8808H130.739ZM138.972 21.3392H138.072V20.5714H137.516V21.3392H137.013V21.8421H137.516V23.0071C137.516 23.5897 137.754 23.9337 138.39 23.9337C138.628 23.9337 138.893 23.8544 139.078 23.7485L138.919 23.2719C138.76 23.3778 138.575 23.4043 138.443 23.4043C138.178 23.4043 138.072 23.2455 138.072 22.9806V21.8421H138.972V21.3392ZM143.685 21.2861C143.367 21.2861 143.155 21.4451 143.023 21.6569V21.3392H142.467V23.8808H143.023V22.4512C143.023 22.0276 143.208 21.7893 143.553 21.7893C143.658 21.7893 143.791 21.8158 143.897 21.8422L144.056 21.3128C143.95 21.2863 143.791 21.2863 143.685 21.2863M136.563 21.5511C136.298 21.3657 135.928 21.2864 135.53 21.2864C134.895 21.2864 134.472 21.604 134.472 22.1071C134.472 22.5308 134.789 22.769 135.345 22.8484L135.61 22.875C135.901 22.9278 136.06 23.0073 136.06 23.1397C136.06 23.3249 135.848 23.4574 135.478 23.4574C135.107 23.4574 134.816 23.3249 134.63 23.1926L134.366 23.6162C134.657 23.828 135.054 23.9339 135.451 23.9339C136.192 23.9339 136.616 23.5898 136.616 23.1132C136.616 22.6631 136.272 22.4248 135.742 22.3454L135.478 22.3189C135.239 22.2923 135.054 22.2395 135.054 22.0807C135.054 21.8953 135.239 21.7894 135.53 21.7894C135.848 21.7894 136.166 21.9217 136.325 22.0012L136.563 21.5511ZM151.336 21.2864C151.019 21.2864 150.807 21.4452 150.674 21.657V21.3393H150.118V23.8809H150.674V22.4513C150.674 22.0277 150.86 21.7894 151.204 21.7894C151.31 21.7894 151.442 21.8159 151.548 21.8424L151.707 21.3129C151.601 21.2864 151.442 21.2864 151.336 21.2864ZM144.241 22.6101C144.241 23.3779 144.77 23.9339 145.591 23.9339C145.962 23.9339 146.227 23.8545 146.491 23.6427L146.227 23.1926C146.015 23.3515 145.803 23.4308 145.565 23.4308C145.115 23.4308 144.797 23.1132 144.797 22.6101C144.797 22.1336 145.115 21.8158 145.565 21.7894C145.803 21.7894 146.015 21.8688 146.227 22.0277L146.491 21.5776C146.227 21.3657 145.962 21.2864 145.591 21.2864C144.77 21.2864 144.241 21.8424 144.241 22.6101ZM149.377 22.6101V21.3393H148.821V21.657C148.636 21.4188 148.371 21.2864 148.027 21.2864C147.312 21.2864 146.756 21.8424 146.756 22.6101C146.756 23.3779 147.312 23.9339 148.027 23.9339C148.397 23.9339 148.662 23.8016 148.821 23.5632V23.8809H149.377V22.6101ZM147.338 22.6101C147.338 22.16 147.63 21.7894 148.106 21.7894C148.556 21.7894 148.874 22.1336 148.874 22.6101C148.874 23.0602 148.556 23.4308 148.106 23.4308C147.63 23.4043 147.338 23.0602 147.338 22.6101ZM140.693 21.2864C139.952 21.2864 139.422 21.8158 139.422 22.6101C139.422 23.4044 139.952 23.9339 140.72 23.9339C141.09 23.9339 141.461 23.828 141.752 23.5898L141.487 23.1926C141.276 23.3515 141.011 23.4574 140.746 23.4574C140.402 23.4574 140.058 23.2985 139.978 22.8483H141.858V22.6367C141.885 21.8158 141.408 21.2864 140.693 21.2864ZM140.693 21.7629C141.037 21.7629 141.276 21.9748 141.328 22.3719H140.005C140.058 22.0277 140.296 21.7629 140.693 21.7629ZM154.487 22.6101V20.3333H153.931V21.657C153.745 21.4188 153.481 21.2864 153.136 21.2864C152.422 21.2864 151.866 21.8424 151.866 22.6101C151.866 23.3779 152.422 23.9339 153.136 23.9339C153.507 23.9339 153.772 23.8016 153.931 23.5632V23.8809H154.487V22.6101ZM152.448 22.6101C152.448 22.16 152.739 21.7894 153.216 21.7894C153.666 21.7894 153.984 22.1336 153.984 22.6101C153.984 23.0602 153.666 23.4308 153.216 23.4308C152.739 23.4043 152.448 23.0602 152.448 22.6101ZM133.862 22.6101V21.3393H133.306V21.657C133.121 21.4188 132.856 21.2864 132.512 21.2864C131.797 21.2864 131.241 21.8424 131.241 22.6101C131.241 23.3779 131.797 23.9339 132.512 23.9339C132.883 23.9339 133.148 23.8016 133.306 23.5632V23.8809H133.862V22.6101ZM131.797 22.6101C131.797 22.16 132.089 21.7894 132.565 21.7894C133.015 21.7894 133.333 22.1336 133.333 22.6101C133.333 23.0602 133.015 23.4308 132.565 23.4308C132.089 23.4043 131.797 23.0602 131.797 22.6101Z" fill="black"/>
<path d="M136.378 2.03857H144.717V17.0236H136.378V2.03857Z" fill="#FF5F00"/>
<path d="M136.907 9.53114C136.907 6.48651 138.337 3.78597 140.534 2.03855C138.919 0.767759 136.881 0 134.657 0C129.388 0 125.126 4.26247 125.126 9.53114C125.126 14.7997 129.388 19.0623 134.657 19.0623C136.881 19.0623 138.919 18.2945 140.534 17.0236C138.337 15.3027 136.907 12.5758 136.907 9.53114Z" fill="#EB001B"/>
<path d="M155.969 9.53114C155.969 14.7997 151.707 19.0623 146.438 19.0623C144.214 19.0623 142.176 18.2945 140.561 17.0236C142.785 15.2763 144.188 12.5758 144.188 9.53114C144.188 6.48651 142.758 3.78597 140.561 2.03855C142.176 0.767759 144.214 0 146.438 0C151.707 0 155.969 4.28901 155.969 9.53114Z" fill="#F79E1B"/>
</g>
<defs>
<linearGradient id="paint0_linear_2101_10408" x1="-146.563" y1="103.635" x2="705.796" y2="103.635" gradientUnits="userSpaceOnUse">
<stop stop-color="#007940"/>
<stop offset="0.2285" stop-color="#00873F"/>
<stop offset="0.7433" stop-color="#40A737"/>
<stop offset="1" stop-color="#5CB531"/>
</linearGradient>
<linearGradient id="paint1_linear_2101_10408" x1="22.4179" y1="1035.45" x2="874.821" y2="1035.45" gradientUnits="userSpaceOnUse">
<stop stop-color="#007940"/>
<stop offset="0.2285" stop-color="#00873F"/>
<stop offset="0.7433" stop-color="#40A737"/>
<stop offset="1" stop-color="#5CB531"/>
</linearGradient>
<linearGradient id="paint2_linear_2101_10408" x1="-146.588" y1="92.8906" x2="705.817" y2="92.8906" gradientUnits="userSpaceOnUse">
<stop stop-color="#007940"/>
<stop offset="0.2285" stop-color="#00873F"/>
<stop offset="0.7433" stop-color="#40A737"/>
<stop offset="1" stop-color="#5CB531"/>
</linearGradient>
<linearGradient id="paint3_linear_2101_10408" x1="3.2772" y1="1035.45" x2="868.812" y2="1035.45" gradientUnits="userSpaceOnUse">
<stop stop-color="#1F286F"/>
<stop offset="0.4751" stop-color="#004E94"/>
<stop offset="0.8261" stop-color="#0066B1"/>
<stop offset="1" stop-color="#006FBC"/>
</linearGradient>
<linearGradient id="paint4_linear_2101_10408" x1="6.43222" y1="1035.44" x2="847.074" y2="1035.44" gradientUnits="userSpaceOnUse">
<stop stop-color="#6C2C2F"/>
<stop offset="0.1735" stop-color="#882730"/>
<stop offset="0.5731" stop-color="#BE1833"/>
<stop offset="0.8585" stop-color="#DC0436"/>
<stop offset="1" stop-color="#E60039"/>
</linearGradient>
<linearGradient id="paint5_linear_2101_10408" x1="3444.29" y1="71.8555" x2="3513.48" y2="-2383.12" gradientUnits="userSpaceOnUse">
<stop stop-color="#222357"/>
<stop offset="1" stop-color="#254AA5"/>
</linearGradient>
<clipPath id="clip0_2101_10408">
<rect width="31.0303" height="24" fill="white" transform="translate(0.0712891)"/>
</clipPath>
<clipPath id="clip1_2101_10408">
<rect width="74.0241" height="24" fill="white" transform="translate(41.1016)"/>
</clipPath>
<clipPath id="clip2_2101_10408">
<rect width="30.8744" height="24" fill="white" transform="translate(125.126)"/>
</clipPath>
</defs>
</svg>
