<svg width="48" height="48" viewBox="0 0 48 48" fill="none" xmlns="http://www.w3.org/2000/svg">
<rect width="48" height="48" rx="24" fill="#E9ECFB"/>
<path opacity="0.4" d="M30.9833 7.33331H17.0333C10.9667 7.33331 7.35002 10.95 7.35002 17.0166V30.9666C7.35002 37.0333 10.9667 40.65 17.0333 40.65H30.9833C37.05 40.65 40.6667 37.0333 40.6667 30.9666V17.0166C40.6667 10.95 37.05 7.33331 30.9833 7.33331Z" fill="#2B45D8"/>
<path d="M20.85 22.5834H16.4333C15.3833 22.5834 14.5333 23.4333 14.5333 24.4833V33.0166H20.85V22.5834V22.5834Z" fill="#2B45D8"/>
<path opacity="0.4" d="M25.2667 14.9999H22.7333C21.6833 14.9999 20.8333 15.85 20.8333 16.9V33H27.15V16.9C27.15 15.85 26.3167 14.9999 25.2667 14.9999Z" fill="#2B45D8"/>
<path d="M31.5833 25.4166H27.1667V33H33.4833V27.3167C33.4667 26.2667 32.6166 25.4166 31.5833 25.4166Z" fill="#2B45D8"/>
</svg>
