<svg width="21" height="20" viewBox="0 0 21 20" fill="none" xmlns="http://www.w3.org/2000/svg">
<g clip-path="url(#clip0_2289_375)">
<path d="M10.7618 15.4875C8.36802 15.4187 6.39927 14.575 5.13052 12.4687C4.42427 11.3 4.23052 10.0062 4.40552 8.68122C4.67427 6.61872 6.85552 5.52497 8.75552 6.44372C9.18677 6.65622 9.62427 6.88122 10.093 6.99997C10.9868 7.23122 11.8305 7.03122 12.618 6.56247C13.3368 6.14372 14.1055 6.01247 14.918 6.19372C16.2493 6.48747 17.1368 7.59372 17.2305 8.93747C17.5055 13.05 14.318 15.5375 10.7618 15.475V15.4875ZM10.818 12.6687C11.3868 12.6687 11.8743 12.4687 12.268 12.0625C12.5805 11.7437 12.6055 11.3187 12.3368 11.0187C12.068 10.7187 11.6243 10.6812 11.2868 10.9687C10.9493 11.2562 10.6618 11.2562 10.3243 10.9687C9.98052 10.6812 9.54927 10.7312 9.27427 11.0437C9.01177 11.35 9.02427 11.7375 9.33052 12.0562C9.73677 12.4687 10.2305 12.675 10.818 12.6687ZM8.78052 9.29997C8.78052 9.08747 8.79302 8.86872 8.78052 8.66247C8.74927 8.26872 8.44927 7.99372 8.06802 7.98122C7.66802 7.96872 7.33052 8.25622 7.31177 8.66247C7.28677 9.07497 7.28677 9.49372 7.31177 9.90622C7.33677 10.2875 7.67427 10.5687 8.04302 10.575C8.41802 10.575 8.74302 10.2937 8.78052 9.91247C8.79927 9.71247 8.78052 9.51247 8.78052 9.31247V9.29997ZM12.818 9.22497C12.818 9.44997 12.7993 9.68122 12.818 9.90622C12.8493 10.2687 13.1618 10.55 13.518 10.5687C13.8868 10.5875 14.2555 10.3125 14.2805 9.93747C14.3118 9.49997 14.3118 9.05622 14.2805 8.61872C14.2555 8.23747 13.9055 7.97497 13.5243 7.98122C13.143 7.99372 12.843 8.27497 12.8118 8.66872C12.7993 8.85622 12.8118 9.04372 12.8118 9.23122L12.818 9.22497Z" fill="#F8F9FA"/>
<path d="M19.6368 12.8625C19.4305 12.9125 19.2805 12.95 19.1555 12.9812C19.1555 12.0562 19.1368 11.1375 19.1555 10.225C19.193 8.95622 19.0055 7.71872 18.4868 6.55622C17.393 4.11872 15.6868 2.25622 13.043 1.46872C9.92426 0.537472 7.21801 1.41247 5.00551 3.69372C3.31801 5.43122 2.40551 7.53122 2.44301 9.98122C2.45551 10.975 2.44301 11.975 2.44301 12.9625C1.66176 12.8375 0.968007 12.2062 0.868007 11.3437C0.724257 10.125 0.730507 8.88747 1.01801 7.68747C1.09926 7.35622 1.31176 7.01247 1.56176 6.77497C1.85551 6.49997 2.04301 6.19997 2.21176 5.84372C3.56801 2.99997 5.67426 0.974972 8.83051 0.249972C12.243 -0.531278 15.1118 0.556222 17.493 3.00622C18.393 3.93122 19.0555 5.01247 19.543 6.19997C19.5868 6.30622 19.6368 6.43747 19.7243 6.49372C20.4743 6.99997 20.693 7.76247 20.7368 8.58122C20.7805 9.43122 20.7993 10.2937 20.7368 11.1375C20.7118 11.5125 20.4743 11.875 20.3305 12.2437C20.2555 12.4437 20.1305 12.65 20.1243 12.85C20.1055 13.9437 20.1243 15.0375 20.1118 16.1312C20.0993 18.0125 18.743 19.35 16.8305 19.3562C15.618 19.3562 14.3993 19.3562 13.193 19.3562C13.018 19.9437 12.9555 19.9875 12.3368 19.9875C11.268 19.9875 10.1993 19.9875 9.13051 19.9875C8.61176 19.9875 8.46176 19.8312 8.45551 19.3187C8.45551 19.1875 8.45551 19.05 8.45551 18.9187C8.45551 18.375 8.60551 18.225 9.14926 18.2187C10.218 18.2187 11.2868 18.2187 12.3555 18.2187C12.9618 18.2187 13.0243 18.2687 13.1868 18.875C14.5305 18.875 15.8868 18.925 17.2305 18.8625C18.493 18.8062 19.568 17.7375 19.6243 16.4937C19.6805 15.2937 19.6368 14.0937 19.6368 12.85V12.8625Z" fill="#F8F9FA"/>
<path d="M11.7868 4.4C11.7868 4.95 11.3305 5.38125 10.768 5.36875C10.2305 5.35625 9.80551 4.91875 9.80551 4.38125C9.80551 3.83125 10.2618 3.4 10.8243 3.4125C11.368 3.425 11.7868 3.8625 11.7868 4.39375V4.4Z" fill="#F8F9FA"/>
<path opacity="0.4" d="M10.818 12.6687C10.2305 12.675 9.73675 12.4687 9.3305 12.0562C9.02425 11.7437 9.01175 11.35 9.27425 11.0437C9.543 10.7312 9.9805 10.6812 10.3243 10.9687C10.6618 11.2562 10.9493 11.2562 11.2868 10.9687C11.6243 10.6812 12.0743 10.7187 12.3368 11.0187C12.6055 11.3187 12.5805 11.7437 12.268 12.0625C11.8743 12.4625 11.3868 12.6687 10.818 12.6687Z" fill="#F8F9FA"/>
<path opacity="0.4" d="M8.78053 9.30627C8.78053 9.50627 8.79928 9.70627 8.78053 9.90627C8.74303 10.2875 8.41803 10.5688 8.04303 10.5688C7.66803 10.5688 7.33053 10.2813 7.31178 9.90002C7.28678 9.48752 7.28678 9.06877 7.31178 8.65627C7.33053 8.25002 7.67428 7.96877 8.06803 7.97502C8.44928 7.98127 8.75553 8.26252 8.78053 8.65627C8.79928 8.86877 8.78053 9.08127 8.78053 9.29377V9.30627Z" fill="#F8F9FA"/>
<path opacity="0.4" d="M12.818 9.23125C12.818 9.04375 12.8055 8.85625 12.818 8.66875C12.8493 8.275 13.1493 7.99375 13.5305 7.98125C13.9118 7.96875 14.2618 8.2375 14.2868 8.61875C14.318 9.05625 14.318 9.5 14.2868 9.9375C14.2618 10.3125 13.893 10.5875 13.5243 10.5688C13.168 10.55 12.8555 10.275 12.8243 9.90625C12.8055 9.68125 12.8243 9.45 12.8243 9.225L12.818 9.23125Z" fill="#F8F9FA"/>
</g>
<defs>
<clipPath id="clip0_2289_375">
<rect width="20" height="20" fill="white" transform="translate(0.780518)"/>
</clipPath>
</defs>
</svg>
