<svg width="64" height="64" viewBox="0 0 64 64" fill="none" xmlns="http://www.w3.org/2000/svg">
<path opacity="0.4" d="M57.973 25.1733H5.33301V17.12C5.33301 10.6133 10.613 5.33331 17.1197 5.33331H23.333C27.6797 5.33331 29.0397 6.74665 30.773 9.06665L34.5063 14.0266C35.333 15.12 35.4397 15.28 36.9863 15.28H44.4263C50.7463 15.2533 56.133 19.4133 57.973 25.1733Z" fill="#04773B"/>
<path d="M58.6397 28.9067C58.5863 27.6 58.373 26.3733 57.973 25.1733H5.33301V44.4C5.33301 52.2667 11.733 58.6667 19.5997 58.6667H44.3997C52.2663 58.6667 58.6663 52.2667 58.6663 44.4V29.52C58.6663 29.3333 58.6663 29.0933 58.6397 28.9067ZM38.6663 43.3333H34.1597V48C34.1597 49.0933 33.253 50 32.1597 50C31.0663 50 30.1597 49.0933 30.1597 48V43.3333H25.333C24.2397 43.3333 23.333 42.4267 23.333 41.3333C23.333 40.24 24.2397 39.3333 25.333 39.3333H30.1597V34.6667C30.1597 33.5733 31.0663 32.6667 32.1597 32.6667C33.253 32.6667 34.1597 33.5733 34.1597 34.6667V39.3333H38.6663C39.7597 39.3333 40.6663 40.24 40.6663 41.3333C40.6663 42.4267 39.7597 43.3333 38.6663 43.3333Z" fill="#04773B"/>
</svg>
