<svg width="60" height="61" viewBox="0 0 60 61" fill="none" xmlns="http://www.w3.org/2000/svg">
<path d="M0 8.5C0 4.08172 3.58172 0.5 8 0.5H52C56.4183 0.5 60 4.08172 60 8.5V52.5C60 56.9183 56.4183 60.5 52 60.5H8C3.58172 60.5 0 56.9183 0 52.5V8.5Z" fill="#1E88E5"/>
<path opacity="0.4" d="M38.5001 13.8334H31.5001C25.7501 13.8334 23.4168 16.1167 23.3501 21.75H28.5001C35.5001 21.75 38.7501 25 38.7501 32V37.15C44.3834 37.0834 46.6668 34.75 46.6668 29V22C46.6668 16.1667 44.3334 13.8334 38.5001 13.8334Z" fill="#E1E3E5"/>
<path d="M28.5002 23.8334H21.5002C15.6668 23.8334 13.3335 26.1667 13.3335 32V39C13.3335 44.8334 15.6668 47.1667 21.5002 47.1667H28.5002C34.3335 47.1667 36.6668 44.8334 36.6668 39V32C36.6668 26.1667 34.3335 23.8334 28.5002 23.8334ZM30.4835 33.25L24.3002 39.4334C24.0668 39.6667 23.7668 39.7834 23.4502 39.7834C23.1335 39.7834 22.8335 39.6667 22.6002 39.4334L19.5002 36.3334C19.0335 35.8667 19.0335 35.1167 19.5002 34.65C19.9668 34.1834 20.7168 34.1834 21.1835 34.65L23.4335 36.9L28.7835 31.55C29.2502 31.0834 30.0002 31.0834 30.4668 31.55C30.9335 32.0167 30.9502 32.7834 30.4835 33.25Z" fill="#E1E3E5"/>
</svg>
