<svg width="24" height="25" viewBox="0 0 24 25" fill="none" xmlns="http://www.w3.org/2000/svg">
<path d="M18.75 8.5V10.6C18.31 10.54 17.81 10.51 17.25 10.5V8.5C17.25 5.35 16.36 3.25 12 3.25C7.64 3.25 6.75 5.35 6.75 8.5V10.5C6.19 10.51 5.69 10.54 5.25 10.6V8.5C5.25 5.6 5.95 1.75 12 1.75C18.05 1.75 18.75 5.6 18.75 8.5Z" fill="#FAF9F9"/>
<path opacity="0.4" d="M22 15.5V17.5C22 21.5 21 22.5 17 22.5H7C3 22.5 2 21.5 2 17.5V15.5C2 12.16 2.7 10.91 5.25 10.6C5.69 10.54 6.19 10.51 6.75 10.5H17.25C17.81 10.51 18.31 10.54 18.75 10.6C21.3 10.91 22 12.16 22 15.5Z" fill="#FAF9F9"/>
<path d="M8 17.5001C7.87 17.5001 7.74 17.4701 7.62 17.4201C7.49 17.3701 7.39001 17.3001 7.29001 17.2101C7.11001 17.0201 7 16.7601 7 16.5001C7 16.3701 7.02999 16.2401 7.07999 16.1201C7.12999 16.0001 7.20001 15.8901 7.29001 15.7901C7.39001 15.7001 7.49 15.6301 7.62 15.5801C7.99 15.4201 8.42999 15.5101 8.70999 15.7901C8.79999 15.8901 8.87001 16.0001 8.92001 16.1201C8.97001 16.2401 9 16.3701 9 16.5001C9 16.7601 8.88999 17.0201 8.70999 17.2101C8.51999 17.3901 8.26 17.5001 8 17.5001Z" fill="#FAF9F9"/>
<path d="M12 17.5C11.73 17.5 11.48 17.39 11.29 17.21C11.2 17.11 11.13 17 11.08 16.88C11.03 16.76 11 16.63 11 16.5C11 16.23 11.11 15.98 11.29 15.79C11.66 15.42 12.33 15.42 12.71 15.79C12.89 15.98 13 16.23 13 16.5C13 16.63 12.97 16.76 12.92 16.88C12.87 17 12.8 17.11 12.71 17.21C12.52 17.39 12.26 17.5 12 17.5Z" fill="#FAF9F9"/>
<path d="M16 17.5C15.74 17.5 15.48 17.39 15.29 17.21C15.11 17.02 15 16.77 15 16.5C15 16.23 15.11 15.98 15.29 15.79C15.67 15.42 16.34 15.42 16.71 15.79C16.75 15.84 16.79 15.89 16.83 15.95C16.87 16 16.9 16.06 16.92 16.12C16.95 16.18 16.97 16.24 16.98 16.3C16.99 16.37 17 16.44 17 16.5C17 16.76 16.89 17.02 16.71 17.21C16.52 17.39 16.26 17.5 16 17.5Z" fill="#FAF9F9"/>
</svg>
