<svg width="48" height="48" viewBox="0 0 48 48" fill="none" xmlns="http://www.w3.org/2000/svg">
<path d="M-0.000976562 8C-0.000976562 3.58172 3.58075 0 7.99902 0H40.001C44.4193 0 48.001 3.58172 48.001 8V40C48.001 44.4183 44.4193 48 40.001 48H7.99902C3.58075 48 -0.000976562 44.4183 -0.000976562 40V8Z" fill="#42A5F5"/>
<path opacity="0.4" d="M24 40.6667C33.2052 40.6667 40.6675 33.2048 40.6675 24C40.6675 14.7953 33.2052 7.33334 24 7.33334C14.7948 7.33334 7.33252 14.7953 7.33252 24C7.33252 33.2048 14.7948 40.6667 24 40.6667Z" fill="#FAF9F9"/>
<path d="M30.1836 30.55C29.967 30.55 29.7503 30.5 29.5503 30.3667L24.3833 27.2833C23.0999 26.5167 22.1499 24.8333 22.1499 23.35V16.5167C22.1499 15.8333 22.7166 15.2667 23.4 15.2667C24.0833 15.2667 24.65 15.8333 24.65 16.5167V23.35C24.65 23.95 25.15 24.8333 25.6667 25.1333L30.8337 28.2167C31.4337 28.5667 31.617 29.3333 31.267 29.9333C31.017 30.3333 30.6003 30.55 30.1836 30.55Z" fill="#FAF9F9"/>
</svg>
