<svg width="54" height="54" viewBox="0 0 54 54" fill="none" xmlns="http://www.w3.org/2000/svg">
<path d="M0 8C0 3.58172 3.58172 0 8 0H46C50.4183 0 54 3.58172 54 8V46C54 50.4183 50.4183 54 46 54H8C3.58172 54 0 50.4183 0 46V8Z" fill="#42A5F5"/>
<path opacity="0.2" d="M27 9.75C23.9705 9.74962 20.9944 10.5471 18.3711 12.0621C15.7477 13.5771 13.5695 15.7563 12.0558 18.3804C10.542 21.0045 9.74599 23.9809 9.74781 27.0104C9.74962 30.0398 10.5492 33.0153 12.0661 35.6376L9.82543 42.3561C9.74096 42.6094 9.72871 42.8812 9.79003 43.141C9.85135 43.4009 9.98384 43.6385 10.1726 43.8273C10.3614 44.0161 10.5991 44.1486 10.8589 44.2099C11.1188 44.2713 11.3906 44.259 11.6439 44.1745L18.3624 41.9338C20.6533 43.2583 23.2182 44.0379 25.8586 44.2124C28.4991 44.387 31.1443 43.9517 33.5896 42.9402C36.0349 41.9288 38.2147 40.3683 39.9603 38.3796C41.706 36.3908 42.9707 34.0271 43.6566 31.4714C44.3426 28.9156 44.4313 26.2363 43.916 23.6407C43.4007 21.0452 42.2951 18.603 40.6848 16.5031C39.0746 14.4032 37.0028 12.702 34.6298 11.531C32.2568 10.3599 29.6462 9.75057 27 9.75ZM31.3125 37.0625C27.5 37.0625 23.8436 35.548 21.1478 32.8522C18.452 30.1563 16.9375 26.5 16.9375 22.6875C16.9375 21.1625 17.5433 19.7 18.6216 18.6216C19.6999 17.5433 21.1625 16.9375 22.6875 16.9375L25.5625 22.6875L23.3487 26.0063C24.2268 28.1046 25.8953 29.7731 27.9936 30.6513L31.3125 28.4375L37.0625 31.3125C37.0625 32.8375 36.4567 34.3 35.3783 35.3784C34.3 36.4567 32.8375 37.0625 31.3125 37.0625Z" fill="white"/>
<path d="M37.7057 30.0259L31.9557 27.1509C31.7294 27.0381 31.4773 26.9871 31.2249 27.0028C30.9725 27.0186 30.7287 27.1007 30.5182 27.2408L27.8786 29.0017C26.6669 28.3356 25.6697 27.3384 25.0036 26.1267L26.7645 23.4871C26.9046 23.2766 26.9867 23.0328 27.0025 22.7804C27.0183 22.528 26.9672 22.2759 26.8544 22.0496L23.9794 16.2996C23.8602 16.059 23.676 15.8565 23.4477 15.7152C23.2193 15.5738 22.956 15.4993 22.6874 15.5C20.7812 15.5 18.953 16.2573 17.6051 17.6052C16.2572 18.9531 15.4999 20.7813 15.4999 22.6875C15.5047 26.8798 17.1722 30.899 20.1366 33.8634C23.1009 36.8278 27.1202 38.4952 31.3124 38.5C32.2563 38.5 33.1909 38.3141 34.063 37.9529C34.935 37.5917 35.7273 37.0623 36.3948 36.3948C37.0622 35.7274 37.5916 34.9351 37.9528 34.063C38.314 33.191 38.4999 32.2564 38.4999 31.3125C38.5001 31.0454 38.4259 30.7836 38.2856 30.5564C38.1453 30.3291 37.9445 30.1454 37.7057 30.0259ZM31.3124 35.625C27.8824 35.6212 24.5939 34.2569 22.1684 31.8315C19.743 29.4061 18.3787 26.1176 18.3749 22.6875C18.3746 21.6904 18.7199 20.7241 19.3518 19.9529C19.9838 19.1817 20.8634 18.6533 21.8411 18.4577L23.9039 22.5905L22.1484 25.2031C22.0172 25.3999 21.9366 25.626 21.9137 25.8614C21.8908 26.0968 21.9264 26.3342 22.0172 26.5526C23.0457 28.997 24.9903 30.9417 27.4348 31.9702C27.6538 32.065 27.893 32.1039 28.1308 32.0831C28.3686 32.0624 28.5975 31.9829 28.7968 31.8516L31.4238 30.1014L35.5566 32.1642C35.3594 33.1433 34.8284 34.0236 34.0544 34.6548C33.2803 35.2859 32.3112 35.6289 31.3124 35.625ZM26.9999 8.3125C23.7736 8.3118 20.602 9.14641 17.7939 10.7351C14.9858 12.3238 12.6369 14.6124 10.9757 17.3783C9.31454 20.1441 8.39775 23.2929 8.31456 26.5182C8.23138 29.7435 8.98464 32.9353 10.501 35.7831L8.46157 41.9015C8.29264 42.408 8.26812 42.9517 8.39077 43.4714C8.51342 43.9911 8.77839 44.4664 9.15597 44.844C9.53356 45.2215 10.0088 45.4865 10.5286 45.6092C11.0483 45.7318 11.5919 45.7073 12.0984 45.5384L18.2168 43.4989C20.723 44.8319 23.5 45.5765 26.3369 45.676C29.1739 45.7756 31.9962 45.2275 34.5897 44.0734C37.1832 42.9194 39.4797 41.1896 41.3049 39.0155C43.13 36.8414 44.4359 34.28 45.1234 31.5258C45.8109 28.7717 45.8619 25.8971 45.2726 23.1203C44.6832 20.3434 43.469 17.7374 41.7221 15.4998C39.9752 13.2623 37.7416 11.4522 35.1906 10.2069C32.6397 8.96151 29.8386 8.31366 26.9999 8.3125ZM26.9999 42.8125C24.2201 42.8144 21.4891 42.0824 19.0829 40.6904C18.9067 40.5882 18.7109 40.5247 18.5083 40.5039C18.3057 40.4832 18.101 40.5057 17.9077 40.57L11.1874 42.8125L13.4281 36.0922C13.4927 35.8991 13.5155 35.6945 13.4951 35.4919C13.4747 35.2893 13.4114 35.0933 13.3095 34.917C11.5665 31.9035 10.8667 28.399 11.3187 24.9472C11.7706 21.4953 13.3491 18.2891 15.8091 15.8259C18.2692 13.3627 21.4734 11.7802 24.9247 11.3239C28.376 10.8676 31.8813 11.563 34.8971 13.3022C37.9128 15.0414 40.2703 17.7272 41.6038 20.943C42.9373 24.1588 43.1723 27.7247 42.2723 31.0877C41.3724 34.4507 39.3878 37.4226 36.6264 39.5426C33.865 41.6625 30.4812 42.8119 26.9999 42.8125Z" fill="white"/>
</svg>
