<svg width="48" height="48" viewBox="0 0 48 48" fill="none" xmlns="http://www.w3.org/2000/svg">
<rect width="48" height="48" rx="24" fill="#E9ECFB"/>
<path opacity="0.4" d="M32.3333 16.9166C32.0166 16.9166 31.7 16.8 31.45 16.55C30.9666 16.0666 30.9666 15.2666 31.45 14.7833L34.8666 11.3666C31.9333 8.86664 28.15 7.33331 24 7.33331C14.8 7.33331 7.33331 14.8 7.33331 24C7.33331 33.2 14.8 40.6666 24 40.6666C33.2 40.6666 40.6666 33.2 40.6666 24C40.6666 19.85 39.1333 16.0667 36.6333 13.1333L33.2166 16.55C32.9666 16.8 32.65 16.9166 32.3333 16.9166Z" fill="#2B45D8"/>
<path d="M26.9166 23.7L25.25 23.1167V19.4167H25.3833C26.2333 19.4167 26.9166 20.1667 26.9166 21.0833C26.9166 21.7667 27.4833 22.3333 28.1666 22.3333C28.85 22.3333 29.4166 21.7667 29.4166 21.0833C29.4166 18.7833 27.6166 16.9167 25.3833 16.9167H25.25V16.5C25.25 15.8167 24.6833 15.25 24 15.25C23.3166 15.25 22.75 15.8167 22.75 16.5V16.9167H22.25C20.2333 16.9167 18.5833 18.6167 18.5833 20.7167C18.5833 23.15 20 23.9333 21.0833 24.3167L22.75 24.9V28.6H22.6167C21.7667 28.6 21.0833 27.85 21.0833 26.9333C21.0833 26.25 20.5166 25.6833 19.8333 25.6833C19.15 25.6833 18.5833 26.25 18.5833 26.9333C18.5833 29.2333 20.3833 31.1 22.6167 31.1H22.75V31.5167C22.75 32.2 23.3166 32.7667 24 32.7667C24.6833 32.7667 25.25 32.2 25.25 31.5167V31.1H25.75C27.7666 31.1 29.4166 29.4 29.4166 27.3C29.4166 24.85 28 24.0667 26.9166 23.7ZM21.9 21.9333C21.3333 21.7333 21.0833 21.6167 21.0833 20.7C21.0833 19.9833 21.6167 19.4 22.25 19.4H22.75V22.2167L21.9 21.9333ZM25.75 28.5833H25.25V25.7667L26.1 26.0667C26.6667 26.2667 26.9166 26.3833 26.9166 27.3C26.9166 28 26.3833 28.5833 25.75 28.5833Z" fill="#2B45D8"/>
<path d="M41.8163 6.84999C41.6829 6.54999 41.4496 6.29999 41.1329 6.16666C40.9829 6.09999 40.8162 6.06665 40.6496 6.06665H33.9829C33.2996 6.06665 32.7329 6.63332 32.7329 7.31665C32.7329 7.99998 33.2996 8.56665 33.9829 8.56665H37.6329L34.8496 11.35C35.4829 11.9 36.0663 12.4833 36.6163 13.1167L39.3996 10.3333V14C39.3996 14.6833 39.9662 15.25 40.6496 15.25C41.3329 15.25 41.8996 14.6833 41.8996 14V7.33332C41.9162 7.16665 41.8829 7.01665 41.8163 6.84999Z" fill="#2B45D8"/>
</svg>
