<svg width="32" height="32" viewBox="0 0 32 32" fill="none" xmlns="http://www.w3.org/2000/svg">
<path d="M0 16C0 7.16344 7.16344 0 16 0C24.8366 0 32 7.16344 32 16C32 24.8366 24.8366 32 16 32C7.16344 32 0 24.8366 0 16Z" fill="#64B5F6"/>
<path d="M16 6C10.49 6 6 10.49 6 16C6 21.51 10.49 26 16 26C21.51 26 26 21.51 26 16C26 10.49 21.51 6 16 6ZM20.78 13.7L15.11 19.37C14.97 19.51 14.78 19.59 14.58 19.59C14.38 19.59 14.19 19.51 14.05 19.37L11.22 16.54C10.93 16.25 10.93 15.77 11.22 15.48C11.51 15.19 11.99 15.19 12.28 15.48L14.58 17.78L19.72 12.64C20.01 12.35 20.49 12.35 20.78 12.64C21.07 12.93 21.07 13.4 20.78 13.7Z" fill="#FAF9F9"/>
</svg>
