<svg width="114" height="32" viewBox="0 0 114 32" fill="none" xmlns="http://www.w3.org/2000/svg">
<path fill-rule="evenodd" clip-rule="evenodd" d="M27.5816 3.04248H11.1183C9.27226 3.04248 7.77584 4.53898 7.77584 6.38503C7.77584 8.23109 9.27226 9.72751 11.1183 9.72751H19.5122L6.00014 23.2397C4.69461 24.5448 4.69461 26.6612 6.00014 27.9667C7.30539 29.272 9.42178 29.272 10.727 27.9667L24.2391 14.4546V22.8483C24.2391 24.6943 25.7356 26.1908 27.5816 26.1908C29.4277 26.1908 30.9241 24.6943 30.9241 22.8483V6.38503C30.9241 4.53898 29.4277 3.04248 27.5816 3.04248Z" fill="white"/>
<path fill-rule="evenodd" clip-rule="evenodd" d="M37.2029 26.0486H53.6662C55.5123 26.0486 57.0088 24.5522 57.0088 22.7062C57.0088 20.8601 55.5123 19.3636 53.6662 19.3636H45.2724L58.7845 5.85153C60.0899 4.54629 60.0899 2.4299 58.7845 1.12466C57.4792 -0.180875 55.3628 -0.180875 54.0576 1.12466L40.5454 14.6367V6.24283C40.5454 4.39678 39.049 2.90035 37.2029 2.90035C35.3568 2.90035 33.8604 4.39678 33.8604 6.24283V22.7062C33.8604 24.5522 35.3568 26.0486 37.2029 26.0486Z" fill="#FF7900"/>
<path fill-rule="evenodd" clip-rule="evenodd" d="M71.7033 11.3052C73.5856 11.3052 74.2932 9.68603 74.2932 8.08039C74.2932 6.3938 73.5856 4.77461 71.7033 4.77461C69.8211 4.77461 69.1134 6.39373 69.1134 8.08039C69.1134 9.68596 69.8211 11.3052 71.7033 11.3052ZM71.7033 2.99365C74.6537 2.99365 76.3891 5.2199 76.3891 8.08039C76.3891 10.8599 74.6537 13.0861 71.7033 13.0861C68.753 13.0861 67.0175 10.8599 67.0175 8.08039C67.0175 5.2199 68.753 2.99365 71.7033 2.99365ZM77.11 6.06731H78.8634V7.37068H78.8893C79.2272 6.48824 80.1363 5.87721 81.0326 5.87721C81.1626 5.87721 81.3184 5.90453 81.4353 5.94526V7.73718C81.2663 7.69645 80.9936 7.66934 80.7728 7.66934C79.4221 7.66934 78.9544 8.68746 78.9544 9.92299V13.0861H77.11V6.06731ZM87.0767 9.5544C86.7335 9.83216 86.0181 9.84542 85.3889 9.95125C84.7596 10.0702 84.1875 10.2687 84.1875 10.9565C84.1875 11.6576 84.7737 11.8295 85.4318 11.8295C87.0194 11.8295 87.0767 10.6655 87.0767 10.2555V9.5544ZM82.3851 8.1656C82.4997 6.40642 84.2019 5.87721 85.8607 5.87721C87.3339 5.87721 89.1076 6.18135 89.1076 7.8216V11.3799C89.1076 12.0015 89.179 12.623 89.3651 12.9009H87.3055C87.2339 12.6893 87.1768 12.4644 87.1624 12.2396C86.5188 12.8612 85.575 13.0861 84.6737 13.0861C83.2721 13.0861 82.1562 12.438 82.1562 11.0359C82.1562 9.48829 83.4152 9.1179 84.6737 8.95909C85.918 8.78715 87.0767 8.82688 87.0767 8.05963C87.0767 7.25289 86.4759 7.13379 85.7607 7.13379C84.9884 7.13379 84.488 7.42482 84.4163 8.1656H82.3851ZM90.086 6.06731H91.8918V7.04484H91.9322C92.4137 6.25741 93.2432 5.87721 94.0456 5.87721C96.0657 5.87721 96.574 7.03121 96.574 8.76899V13.0861H94.6745V9.12201C94.6745 7.96801 94.34 7.39778 93.4572 7.39778C92.4271 7.39778 91.9856 7.98171 91.9856 9.40705V13.0861H90.0861L90.086 6.06731ZM102.607 9.57004C102.607 8.40393 102.199 7.36268 100.906 7.36268C99.7822 7.36268 99.2904 8.33458 99.2904 9.40337C99.2904 10.4306 99.6839 11.5552 100.906 11.5552C102.045 11.5552 102.607 10.5972 102.607 9.57004ZM104.504 12.7906C104.504 13.9706 104.082 15.9697 100.738 15.9697C99.3045 15.9697 97.6323 15.3032 97.5339 13.6652H99.5152C99.6978 14.4009 100.302 14.6509 101.005 14.6509C102.115 14.6509 102.621 13.9012 102.607 12.8739V11.93H102.579C102.143 12.6796 101.272 13.0407 100.4 13.0407C98.2224 13.0407 97.2949 11.4025 97.2949 9.4312C97.2949 7.57087 98.377 5.87728 100.415 5.87728C101.37 5.87728 102.101 6.19664 102.579 7.02963H102.607V6.07156H104.504V12.7906ZM110.438 8.74751C110.256 7.79507 109.823 7.29261 108.859 7.29261C107.601 7.29261 107.237 8.21844 107.209 8.74751H110.438ZM107.209 9.93791C107.265 11.1284 107.88 11.6707 108.984 11.6707C109.781 11.6707 110.424 11.2076 110.55 10.7844H112.297C111.738 12.3983 110.55 13.0861 108.914 13.0861C106.636 13.0861 105.225 11.6047 105.225 9.48815C105.225 7.43808 106.72 5.87721 108.915 5.87721C111.374 5.87721 112.562 7.83472 112.423 9.93798L107.209 9.93791ZM71.7527 22.9102H71.7808L74.0024 15.9697H77.11V26.0621H75.043V18.9097H75.0149L72.554 26.0621H70.8527L68.392 18.9803H68.3637V26.0621H66.2966V15.9697H69.4044L71.7527 22.9102ZM82.1494 24.6468C83.4564 24.6468 83.8473 23.5489 83.8473 22.4642C83.8473 21.3663 83.4564 20.2685 82.1494 20.2685C80.8559 20.2685 80.4651 21.3663 80.4651 22.4642C80.4651 23.5489 80.8559 24.6468 82.1494 24.6468ZM82.1494 18.8532C84.3458 18.8532 85.7607 20.2819 85.7607 22.4642C85.7607 24.6335 84.3458 26.0621 82.1494 26.0621C79.9667 26.0621 78.5518 24.6335 78.5518 22.4642C78.5518 20.2819 79.9667 18.8532 82.1494 18.8532ZM86.4815 19.0433H88.2874V20.0209H88.3277C88.8092 19.2336 89.6388 18.8532 90.4412 18.8532C92.4613 18.8532 92.9696 20.0072 92.9696 21.7451V26.0621H91.0698V22.098C91.0698 20.944 90.7355 20.3739 89.8527 20.3739C88.8225 20.3739 88.3812 20.9576 88.3812 22.3831V26.0621H86.4816L86.4815 19.0433ZM98.9038 21.7236C98.7221 20.7712 98.2888 20.2685 97.3243 20.2685C96.0666 20.2685 95.7032 21.1946 95.6752 21.7236H98.9038ZM95.6752 22.9141C95.731 24.1043 96.346 24.6468 97.4502 24.6468C98.2467 24.6468 98.8898 24.1837 99.0156 23.7605H100.763C100.204 25.3741 99.0156 26.0621 97.3803 26.0621C95.1022 26.0621 93.6904 24.5805 93.6904 22.4641C93.6904 20.4142 95.186 18.8532 97.3803 18.8532C99.8401 18.8532 101.028 20.8109 100.888 22.914L95.6752 22.9141ZM105.176 26.6561C104.755 27.7687 104.09 28.2248 102.759 28.2248C102.366 28.2248 101.972 28.1978 101.578 28.1576V26.589C101.945 26.6158 102.325 26.6695 102.705 26.6561C103.37 26.589 103.587 25.9053 103.37 25.3557L100.899 18.8532H102.963L104.551 23.5993H104.578L106.113 18.8532H108.108L105.176 26.6561Z" fill="white"/>
</svg>
