<svg width="65" height="65" viewBox="0 0 65 65" fill="none" xmlns="http://www.w3.org/2000/svg">
<path d="M63.6281 29.2501L36.1103 1.72257C34.3659 -0.0224336 31.5312 -0.0224336 29.7868 1.72257L2.26911 29.2501C0.524718 30.9951 0.524718 33.8307 2.26911 35.5757L29.7868 63.1032C31.5312 64.8482 34.3659 64.8482 36.1103 63.1032L63.6281 35.5757C65.3288 33.8307 65.3288 30.9951 63.6281 29.2501ZM35.2381 54.8581C33.9734 56.1232 31.8801 56.1232 30.6154 54.8581L10.4678 34.7032C9.20308 33.4381 9.20308 31.3441 10.4678 30.079L30.6154 9.92411C31.8801 8.65897 33.9734 8.65897 35.2381 9.92411L55.3858 30.079C56.6505 31.3441 56.6505 33.4381 55.3858 34.7032L35.2381 54.8581Z" fill="#F18805"/>
<path d="M46.9255 52.1968L45.0502 54.0727C45.7044 53.4183 46.3585 52.8075 46.9255 52.1968Z" fill="#F18805"/>
<path d="M63.6716 29.2935C59.834 25.4545 52.682 18.3436 52.682 18.3436C53.2925 18.9544 53.9031 19.5651 54.5572 20.2195L52.682 18.3436C37.7674 3.86007 31.8801 8.52795 30.8335 9.66221C30.7463 9.70583 30.659 9.79308 30.6154 9.88033L10.4242 30.0788C9.15948 31.3439 9.15948 33.4379 10.4242 34.7031L30.6154 54.9015C31.8801 56.1667 33.9734 56.1667 35.2381 54.9015L55.4294 34.7031C56.6069 33.5252 56.6941 31.7365 55.7346 30.4278C56.9993 31.7802 60.8806 37.8005 46.9255 52.1532L63.5844 35.4883C65.2852 33.8306 65.4596 31.0822 63.6716 29.2935ZM49.3676 34.0923L34.5839 48.8813C33.6681 49.7974 32.1418 49.7974 31.1824 48.8813L16.3987 34.0923C15.4829 33.1762 15.4829 31.6493 16.3987 30.6896L31.1824 15.9006C32.0982 14.9845 33.6245 14.9845 34.5839 15.9006L49.3676 30.6896C50.327 31.6493 50.327 33.1762 49.3676 34.0923Z" fill="#F18805"/>
<path d="M22.5912 17.8202L23.9432 16.4678C23.4635 16.9477 23.0273 17.3839 22.5912 17.8202Z" fill="#F18805"/>
<path d="M18.3611 42.643C17.925 42.2068 17.4453 41.7705 17.0092 41.2907L18.3611 42.643C30.5282 54.4655 34.5403 48.8815 34.5403 48.8815L34.5839 48.8378C33.5373 49.7976 32.0982 49.7539 31.1824 48.8378L16.355 34.0052C16.355 34.0052 10.7294 29.9917 22.5912 17.8203L10.3805 30.0354C9.11579 31.3005 9.02859 33.3073 10.3369 34.616" fill="#F18805"/>
<path d="M18.928 12.5854L20.8032 10.7095C20.1055 11.3639 19.495 11.9746 18.928 12.5854Z" fill="#2B45D8"/>
<path d="M43.2187 46.9182C42.7826 47.3545 42.3465 47.8344 41.8668 48.2706L43.2187 46.9182C55.255 34.8341 49.4549 30.7333 49.4549 30.7333L49.4113 30.6897C50.3707 31.7367 50.3271 33.1763 49.4113 34.0924L34.5839 48.925C34.5839 48.925 30.8772 54.0728 19.8003 43.9953L10.4242 34.6159C10.4242 34.6159 2.79248 29.1628 18.9281 12.5852L2.26913 29.25C0.568353 30.9514 0.393935 33.6998 2.18193 35.4884C6.01959 39.3275 29.6997 63.0159 29.6997 63.0159C29.6997 63.0159 29.6997 63.0159 29.6997 62.9723L13.128 46.3947C12.5174 45.784 11.9069 45.1732 11.2527 44.5189L13.128 46.3947C27.5628 60.442 33.581 56.4722 34.8892 55.207C34.9765 55.1198 35.0637 55.0325 35.1509 54.9453C37.9855 52.1532 43.2187 46.9182 43.2187 46.9182Z" fill="#2B45D8"/>
<path d="M13.128 46.4384L11.2527 44.5625C11.9069 45.2169 12.5175 45.8276 13.128 46.4384Z" fill="#E9ECFB"/>
<path d="M63.4972 35.6193L46.9255 52.1968C46.315 52.8076 45.7044 53.4183 45.0503 54.0727L46.9255 52.1968C60.8806 37.8442 57.043 31.8239 55.7783 30.4715C55.6911 30.3843 55.6038 30.2534 55.5166 30.1661C53.4234 28.0721 50.0218 24.713 48.4083 23.0552C48.5391 23.1861 48.7135 23.3606 48.8444 23.4915L47.4925 22.1391C35.3254 10.3166 31.3132 15.9007 31.3132 15.9007L31.2696 15.9443C32.3162 14.9846 33.7554 15.0282 34.6712 15.9443L49.4985 30.7769C49.4985 30.7769 54.5136 34.3978 44.9631 45.1296L35.1945 54.9016C35.1945 54.9016 29.7433 62.536 13.1716 46.3947L29.8305 63.0595C31.5313 64.7609 34.2787 64.9354 36.0667 63.1468C39.8171 59.3514 63.5408 35.6193 63.4972 35.6193Z" fill="#E9ECFB"/>
<path d="M47.4488 22.1392C47.4488 22.1392 47.7977 22.4882 48.3646 23.0553C48.0594 22.7499 47.7541 22.4445 47.4488 22.1392Z" fill="#E9ECFB"/>
</svg>
