<svg width="37" height="34" viewBox="0 0 37 34" fill="none" xmlns="http://www.w3.org/2000/svg">
<path d="M0 4C0 1.79086 1.79086 0 4 0H33C35.2091 0 37 1.79086 37 4V30C37 32.2091 35.2091 34 33 34H4C1.79086 34 0 32.2091 0 30V4Z" fill="#576CE0"/>
<path d="M15.2365 21.12C13.4245 21.12 11.9965 19.692 11.9965 16.8C11.9965 13.92 13.4245 12.492 15.2365 12.492C17.0485 12.492 18.4765 13.92 18.4765 16.8C18.4765 19.692 17.0485 21.12 15.2365 21.12ZM12.9085 16.8C12.9085 18.948 13.7725 20.292 15.2365 20.292C16.7005 20.292 17.5525 18.948 17.5525 16.8C17.5525 14.676 16.7005 13.308 15.2365 13.308C13.7725 13.308 12.9085 14.676 12.9085 16.8ZM19.4605 20.664C19.4605 19.188 20.0965 18.276 21.8245 17.232C23.0605 16.476 23.9605 15.972 23.9725 14.88C23.9725 13.896 23.2645 13.32 22.2685 13.32C21.2605 13.32 20.5045 13.908 20.5045 15.12V15.288H19.5685V15.072C19.5685 13.56 20.5285 12.492 22.2685 12.492C23.9485 12.492 24.9325 13.476 24.9325 14.844C24.9325 16.284 23.8525 16.956 22.6165 17.7C21.3085 18.48 20.5405 19.14 20.5405 20.1V20.184H24.9805V21H19.4605V20.664Z" fill="#F8F9FA"/>
</svg>
