<svg width="36" height="34" viewBox="0 0 36 34" fill="none" xmlns="http://www.w3.org/2000/svg">
<path d="M0 4C0 1.79086 1.79086 0 4 0H32C34.2091 0 36 1.79086 36 4V30C36 32.2091 34.2091 34 32 34H4C1.79086 34 0 32.2091 0 30V4Z" fill="#576CE0"/>
<path d="M16.0665 21.12C14.2545 21.12 12.8265 19.692 12.8265 16.8C12.8265 13.92 14.2545 12.492 16.0665 12.492C17.8785 12.492 19.3065 13.92 19.3065 16.8C19.3065 19.692 17.8785 21.12 16.0665 21.12ZM13.7385 16.8C13.7385 18.948 14.6025 20.292 16.0665 20.292C17.5305 20.292 18.3825 18.948 18.3825 16.8C18.3825 14.676 17.5305 13.308 16.0665 13.308C14.6025 13.308 13.7385 14.676 13.7385 16.8ZM21.804 13.896C21.504 14.232 20.952 14.544 20.268 14.568V13.764C21.048 13.692 21.636 13.212 21.804 12.6H22.764V21H21.804V13.896Z" fill="#F8F9FA"/>
</svg>
