<svg width="37" height="34" viewBox="0 0 37 34" fill="none" xmlns="http://www.w3.org/2000/svg">
<path d="M0 4C0 1.79086 1.79086 0 4 0H33C35.2091 0 37 1.79086 37 4V30C37 32.2091 35.2091 34 33 34H4C1.79086 34 0 32.2091 0 30V4Z" fill="#576CE0"/>
<path d="M15.0548 21.12C13.2428 21.12 11.8148 19.692 11.8148 16.8C11.8148 13.92 13.2428 12.492 15.0548 12.492C16.8668 12.492 18.2948 13.92 18.2948 16.8C18.2948 19.692 16.8668 21.12 15.0548 21.12ZM12.7268 16.8C12.7268 18.948 13.5908 20.292 15.0548 20.292C16.5188 20.292 17.3708 18.948 17.3708 16.8C17.3708 14.676 16.5188 13.308 15.0548 13.308C13.5908 13.308 12.7268 14.676 12.7268 16.8ZM22.1828 21.12C20.2508 21.12 19.2548 19.968 19.2548 18.312H20.1668C20.1788 19.56 20.9708 20.28 22.2188 20.28C23.3588 20.28 24.2828 19.668 24.2828 18.54C24.2828 17.508 23.4908 16.884 22.0868 16.884H21.7268V16.128H22.0388C23.4668 16.128 23.8628 15.396 23.8628 14.712C23.8628 13.848 23.2148 13.332 22.2068 13.332C21.2228 13.332 20.4428 13.824 20.4308 15.18H19.5308C19.5308 13.38 20.5748 12.492 22.2308 12.492C23.8748 12.492 24.7988 13.38 24.7988 14.592C24.7988 15.504 24.2588 16.188 23.3828 16.44C24.2708 16.596 25.2548 17.256 25.2548 18.6C25.2548 20.088 24.0308 21.12 22.1828 21.12Z" fill="#F8F9FA"/>
</svg>
