<svg width="32" height="32" viewBox="0 0 32 32" fill="none" xmlns="http://www.w3.org/2000/svg">
<path d="M0 4C0 1.79086 1.79086 0 4 0H28C30.2091 0 32 1.79086 32 4V28C32 30.2091 30.2091 32 28 32H4C1.79086 32 0 30.2091 0 28V4Z" fill="#576CE0"/>
<path d="M12.9868 20.2334L15.0535 21.8334C15.3201 22.1001 15.9201 22.2334 16.3201 22.2334H18.8535C19.6535 22.2334 20.5202 21.6334 20.7202 20.8334L22.3202 15.9667C22.6535 15.0334 22.0535 14.2334 21.0535 14.2334H18.3868C17.9868 14.2334 17.6535 13.9001 17.7201 13.4334L18.0535 11.3001C18.1868 10.7001 17.7868 10.0334 17.1868 9.83339C16.6535 9.63339 15.9868 9.90006 15.7201 10.3001L12.9868 14.3667" stroke="#F8F9FA" stroke-width="1.5" stroke-miterlimit="10"/>
<path d="M9.58643 20.2333V13.7C9.58643 12.7667 9.98643 12.4333 10.9198 12.4333H11.5864C12.5198 12.4333 12.9198 12.7667 12.9198 13.7V20.2333C12.9198 21.1667 12.5198 21.5 11.5864 21.5H10.9198C9.98643 21.5 9.58643 21.1667 9.58643 20.2333Z" stroke="#F8F9FA" stroke-width="1.5" stroke-linecap="round" stroke-linejoin="round"/>
</svg>
