<svg width="122" height="37" viewBox="0 0 122 37" fill="none" xmlns="http://www.w3.org/2000/svg">
<path d="M0.5 18.5C0.5 8.55888 8.55888 0.5 18.5 0.5H103.5C113.441 0.5 121.5 8.55888 121.5 18.5C121.5 28.4411 113.441 36.5 103.5 36.5H18.5C8.55887 36.5 0.5 28.4411 0.5 18.5Z" fill="#2196F3"/>
<path d="M21.1208 22.62C18.8168 22.62 17.3168 21.132 17.3168 18.312C17.3168 15.468 18.8648 13.992 21.1088 13.992C22.7528 13.992 23.9768 14.76 24.3128 16.26H23.3288C23.0168 15.336 22.2248 14.856 21.1088 14.856C19.3568 14.856 18.3008 16.056 18.3008 18.288C18.3008 20.532 19.3808 21.756 21.1328 21.756C22.6088 21.756 23.6288 20.892 23.6288 19.008H21.5168V18.192H24.6008V18.78C24.6008 21.3 23.3048 22.62 21.1208 22.62ZM28.564 22.62C27.016 22.62 25.564 21.6 25.564 19.38C25.564 17.16 27.016 16.14 28.564 16.14C30.112 16.14 31.564 17.16 31.564 19.38C31.564 21.6 30.112 22.62 28.564 22.62ZM26.476 19.38C26.476 21.06 27.472 21.804 28.564 21.804C29.644 21.804 30.64 21.06 30.64 19.38C30.64 17.7 29.644 16.944 28.564 16.944C27.472 16.944 26.476 17.7 26.476 19.38ZM37.5988 22.584C36.6628 22.584 36.0028 22.188 36.0028 21.036V17.04H34.9948V16.26H36.0028V14.7H36.9628V16.26H38.1988V17.04H36.9628V20.856C36.9628 21.528 37.1908 21.792 37.8628 21.792C38.0188 21.792 38.1268 21.792 38.2948 21.768V22.512C38.0788 22.56 37.8508 22.584 37.5988 22.584ZM41.9585 22.62C40.4105 22.62 38.9585 21.6 38.9585 19.38C38.9585 17.16 40.4105 16.14 41.9585 16.14C43.5065 16.14 44.9585 17.16 44.9585 19.38C44.9585 21.6 43.5065 22.62 41.9585 22.62ZM39.8705 19.38C39.8705 21.06 40.8665 21.804 41.9585 21.804C43.0385 21.804 44.0345 21.06 44.0345 19.38C44.0345 17.7 43.0385 16.944 41.9585 16.944C40.8665 16.944 39.8705 17.7 39.8705 19.38ZM48.8093 22.5V14.1H49.7933V21.624H54.1013V22.5H48.8093ZM57.6499 22.62C56.1019 22.62 54.6499 21.6 54.6499 19.38C54.6499 17.16 56.1019 16.14 57.6499 16.14C59.1979 16.14 60.6499 17.16 60.6499 19.38C60.6499 21.6 59.1979 22.62 57.6499 22.62ZM55.5619 19.38C55.5619 21.06 56.5579 21.804 57.6499 21.804C58.7299 21.804 59.7259 21.06 59.7259 19.38C59.7259 17.7 58.7299 16.944 57.6499 16.944C56.5579 16.944 55.5619 17.7 55.5619 19.38ZM64.2417 22.368C62.8257 22.368 61.4937 21.432 61.4937 19.248C61.4937 17.064 62.8377 16.14 64.2417 16.14C65.1417 16.14 66.0057 16.524 66.4497 17.256V16.26H67.4097V22.404C67.4097 24.48 65.7537 25.008 64.4097 25.008C63.1137 25.008 61.6977 24.516 61.6857 23.064H62.5377C62.5737 23.82 63.3777 24.252 64.3977 24.252C65.5377 24.252 66.4497 23.724 66.4497 22.404V21.24C66.0057 21.984 65.1417 22.368 64.2417 22.368ZM62.4057 19.248C62.4057 20.82 63.3777 21.552 64.4337 21.552C65.4897 21.552 66.4977 20.82 66.4977 19.248C66.4977 17.676 65.4897 16.944 64.4337 16.944C63.3777 16.944 62.4057 17.676 62.4057 19.248ZM68.7898 22.5V16.26H69.7498V22.5H68.7898ZM68.6578 14.412C68.6578 14.076 68.9458 13.812 69.2698 13.812C69.5938 13.812 69.8698 14.076 69.8698 14.412C69.8698 14.748 69.5938 15.024 69.2698 15.024C68.9458 15.024 68.6578 14.748 68.6578 14.412ZM75.5375 18.84C75.5375 17.652 75.0335 16.956 73.9295 16.956C72.8255 16.956 72.0935 17.652 72.0935 18.84V22.5H71.1335V16.26H72.0935V17.484H72.1175C72.2255 17.064 72.8255 16.14 74.2655 16.14C75.5015 16.14 76.4975 16.812 76.4975 18.648V22.5H75.5375V18.84Z" fill="#F8F9FA"/>
<path d="M97.5249 13.4417L102.583 18.5L97.5249 23.5583" stroke="#F8F9FA" stroke-width="1.5" stroke-miterlimit="10" stroke-linecap="round" stroke-linejoin="round"/>
<path d="M88.4165 18.5H102.442" stroke="#F8F9FA" stroke-width="1.5" stroke-miterlimit="10" stroke-linecap="round" stroke-linejoin="round"/>
</svg>
