<svg width="130" height="42" viewBox="0 0 130 42" fill="none" xmlns="http://www.w3.org/2000/svg">
<path d="M0.5 21C0.5 9.40202 9.90202 0 21.5 0H108.5C120.098 0 129.5 9.40202 129.5 21C129.5 32.598 120.098 42 108.5 42H21.5C9.90202 42 0.5 32.598 0.5 21Z" fill="#2196F3"/>
<path d="M24.413 25L21.209 16.6H22.253L24.989 23.932H25.061L27.797 16.6H28.841L25.637 25H24.413ZM30.7859 25.12C29.5979 25.12 28.7339 24.58 28.7339 23.404C28.7339 22.3 29.4899 21.76 30.7019 21.616L32.2979 21.436C32.9459 21.364 33.1379 21.232 33.1379 21.028V20.776C33.1379 19.72 32.6099 19.384 31.5779 19.384C30.5459 19.384 30.0179 19.72 30.0179 20.548V20.692H29.0939V20.464C29.0939 19.216 29.9819 18.64 31.6139 18.64C33.3059 18.64 34.0979 19.276 34.0979 20.776V25H33.1979V23.92H33.1499C33.0059 24.232 32.3219 25.12 30.7859 25.12ZM29.6939 23.356C29.6939 24.076 30.2339 24.352 31.0139 24.352C32.4659 24.352 33.1379 23.392 33.1379 22.768V21.868C33.0899 22 32.8859 22.108 32.2379 22.192L30.9299 22.348C30.0059 22.456 29.6939 22.804 29.6939 23.356ZM35.4909 25V16.6H36.4509V25H35.4909ZM37.8347 25V18.76H38.7947V25H37.8347ZM37.7027 16.912C37.7027 16.576 37.9907 16.312 38.3147 16.312C38.6387 16.312 38.9147 16.576 38.9147 16.912C38.9147 17.248 38.6387 17.524 38.3147 17.524C37.9907 17.524 37.7027 17.248 37.7027 16.912ZM42.6744 25.12C41.2344 25.12 39.8664 24.124 39.8664 21.88C39.8664 19.624 41.2344 18.64 42.6744 18.64C43.5984 18.64 44.4504 19.036 44.8824 19.792V16.6H45.8424V25H44.8824V23.956C44.4504 24.712 43.5984 25.12 42.6744 25.12ZM40.7784 21.88C40.7784 23.536 41.7864 24.304 42.8544 24.304C43.9104 24.304 44.9304 23.536 44.9304 21.88C44.9304 20.212 43.9104 19.444 42.8544 19.444C41.7864 19.444 40.7784 20.212 40.7784 21.88ZM48.9851 25.12C47.7971 25.12 46.9331 24.58 46.9331 23.404C46.9331 22.3 47.6891 21.76 48.9011 21.616L50.4971 21.436C51.1451 21.364 51.3371 21.232 51.3371 21.028V20.776C51.3371 19.72 50.8091 19.384 49.7771 19.384C48.7451 19.384 48.2171 19.72 48.2171 20.548V20.692H47.2931V20.464C47.2931 19.216 48.1811 18.64 49.8131 18.64C51.5051 18.64 52.2971 19.276 52.2971 20.776V25H51.3971V23.92H51.3491C51.2051 24.232 50.5211 25.12 48.9851 25.12ZM47.8931 23.356C47.8931 24.076 48.4331 24.352 49.2131 24.352C50.6651 24.352 51.3371 23.392 51.3371 22.768V21.868C51.2891 22 51.0851 22.108 50.4371 22.192L49.1291 22.348C48.2051 22.456 47.8931 22.804 47.8931 23.356ZM55.6984 25.084C54.7624 25.084 54.1024 24.688 54.1024 23.536V19.54H53.0944V18.76H54.1024V17.2H55.0624V18.76H56.2984V19.54H55.0624V23.356C55.0624 24.028 55.2904 24.292 55.9624 24.292C56.1184 24.292 56.2264 24.292 56.3944 24.268V25.012C56.1784 25.06 55.9504 25.084 55.6984 25.084ZM60.0221 25.12C58.3061 25.12 57.0581 24.088 57.0581 21.892C57.0581 19.624 58.3781 18.64 59.9741 18.64C61.5821 18.64 62.7581 19.648 62.7581 21.736C62.7581 21.94 62.7461 22.06 62.7221 22.18H57.9821C58.0541 23.644 58.7741 24.352 60.0341 24.352C60.8021 24.352 61.4981 24.1 61.7981 23.248H62.6741C62.2661 24.628 61.2101 25.12 60.0221 25.12ZM57.9821 21.448H61.8341C61.8221 20.14 61.1141 19.396 59.9621 19.396C58.8701 19.396 58.0781 20.056 57.9821 21.448ZM68.3562 25.12C67.1682 25.12 66.3042 24.58 66.3042 23.404C66.3042 22.3 67.0602 21.76 68.2722 21.616L69.8682 21.436C70.5162 21.364 70.7082 21.232 70.7082 21.028V20.776C70.7082 19.72 70.1802 19.384 69.1482 19.384C68.1162 19.384 67.5882 19.72 67.5882 20.548V20.692H66.6642V20.464C66.6642 19.216 67.5522 18.64 69.1842 18.64C70.8762 18.64 71.6682 19.276 71.6682 20.776V25H70.7682V23.92H70.7202C70.5762 24.232 69.8922 25.12 68.3562 25.12ZM67.2642 23.356C67.2642 24.076 67.8042 24.352 68.5842 24.352C70.0362 24.352 70.7082 23.392 70.7082 22.768V21.868C70.6602 22 70.4562 22.108 69.8082 22.192L68.5002 22.348C67.5762 22.456 67.2642 22.804 67.2642 23.356ZM75.7146 25.12C74.1066 25.12 72.7026 24.1 72.7026 21.892C72.7026 19.672 74.1066 18.64 75.7146 18.64C76.8306 18.64 78.1386 19.132 78.3666 20.884H77.4906C77.3106 19.84 76.5186 19.456 75.7026 19.456C74.4906 19.456 73.6146 20.308 73.6146 21.892C73.6146 23.476 74.4906 24.292 75.7026 24.292C76.5306 24.292 77.3106 23.92 77.4906 22.84H78.3666C78.1506 24.616 76.8306 25.12 75.7146 25.12ZM82.0779 25.12C80.4699 25.12 79.0659 24.1 79.0659 21.892C79.0659 19.672 80.4699 18.64 82.0779 18.64C83.1939 18.64 84.5019 19.132 84.7299 20.884H83.8539C83.6739 19.84 82.8819 19.456 82.0659 19.456C80.8539 19.456 79.9779 20.308 79.9779 21.892C79.9779 23.476 80.8539 24.292 82.0659 24.292C82.8939 24.292 83.6739 23.92 83.8539 22.84H84.7299C84.5139 24.616 83.1939 25.12 82.0779 25.12ZM88.4292 25.12C86.8812 25.12 85.4292 24.1 85.4292 21.88C85.4292 19.66 86.8812 18.64 88.4292 18.64C89.9772 18.64 91.4292 19.66 91.4292 21.88C91.4292 24.1 89.9772 25.12 88.4292 25.12ZM86.3412 21.88C86.3412 23.56 87.3372 24.304 88.4292 24.304C89.5092 24.304 90.5052 23.56 90.5052 21.88C90.5052 20.2 89.5092 19.444 88.4292 19.444C87.3372 19.444 86.3412 20.2 86.3412 21.88ZM93.4744 22.42C93.4744 23.608 93.9784 24.304 95.0824 24.304C96.1864 24.304 96.9184 23.608 96.9184 22.42V18.76H97.8784V25H96.9184V23.776H96.8944C96.7864 24.196 96.1864 25.12 94.7464 25.12C93.5104 25.12 92.5144 24.448 92.5144 22.612V18.76H93.4744V22.42ZM103.68 21.34C103.68 20.152 103.176 19.456 102.072 19.456C100.968 19.456 100.236 20.152 100.236 21.34V25H99.2761V18.76H100.236V19.984H100.26C100.368 19.564 100.968 18.64 102.408 18.64C103.644 18.64 104.64 19.312 104.64 21.148V25H103.68V21.34ZM108.105 25.084C107.169 25.084 106.509 24.688 106.509 23.536V19.54H105.501V18.76H106.509V17.2H107.469V18.76H108.705V19.54H107.469V23.356C107.469 24.028 107.697 24.292 108.369 24.292C108.525 24.292 108.633 24.292 108.801 24.268V25.012C108.585 25.06 108.357 25.084 108.105 25.084Z" fill="#F8F9FA"/>
</svg>
