<svg width="107" height="74" viewBox="0 0 107 74" fill="none" xmlns="http://www.w3.org/2000/svg">
<g clip-path="url(#clip0_3105_7776)">
<path d="M0.836768 24.8165C0.836768 14.4033 0.819325 23.4996 0.836768 13.0777C0.85421 5.15003 5.06659 0.946377 13.0727 0.937655C29.9745 0.920213 46.8764 0.911492 63.7869 0.937655C71.575 0.946377 75.9531 5.41167 75.9618 13.2347C75.9618 25.7148 75.9705 18.6854 75.9618 31.1656C75.9531 38.5874 71.4704 43.1573 64.1009 43.1748C50.8358 43.2097 37.562 43.2271 24.297 43.1399C22.3609 43.1312 21.0178 43.7068 19.6834 45.0847C15.1048 49.8117 9.80224 59.719 5.14508 64.3762C4.10724 65.414 3.1043 66.7397 1.39493 65.9286C-0.192343 65.1786 0.252442 63.5826 0.252442 62.2569C0.226278 51.5472 0.845489 35.5437 0.845489 24.8252L0.836768 24.8165Z" fill="#2B45D8"/>
<path d="M106.8 33.7296C106.8 44.5266 106.8 55.3322 106.8 66.1292C106.8 67.3763 107.105 68.824 105.623 69.4869C104.062 70.1933 103.068 69.1118 102.073 68.1176C97.294 63.3209 92.4799 58.5591 87.753 53.7101C86.5669 52.4978 85.3721 51.9484 83.6452 51.9833C77.7584 52.0879 71.8628 52.0181 65.976 52.0269C64.4323 52.0269 62.8188 52.0181 62.8188 49.9163C62.8188 47.954 64.2579 47.7273 65.8887 47.6226C74.3396 47.0906 80.3835 40.3927 80.4271 31.4185C80.4882 19.0517 80.4358 26.1945 80.4445 13.8277C80.4445 9.97289 80.6277 9.78102 84.3691 9.7723C88.1018 9.76358 91.8345 9.70253 95.5585 9.78974C102.361 9.938 106.748 14.351 106.783 21.1448C106.844 31.8458 106.8 23.0286 106.8 33.7296Z" fill="#E9EFFF"/>
<path d="M12.0872 67.2369H16.317C16.4827 68.8154 17.5467 69.5567 19.3869 69.5567C20.9654 69.5567 22.0294 69.0073 22.0294 67.8125C22.0294 67.0363 21.5149 66.5566 20.416 66.3299L17.3199 65.6845C13.8052 64.8734 12.5407 63.0071 12.5407 60.7831C12.5407 57.5214 15.3489 55.655 19.413 55.655C23.8958 55.655 26.2505 57.8528 26.3203 61.4634H22.387C22.1951 59.7889 21.0962 59.1697 19.4828 59.1697C17.8694 59.1697 17.1281 59.754 17.1281 60.6523C17.1281 61.4896 17.7385 62.039 18.8723 62.2658L22.0381 62.946C24.6807 63.5303 26.8784 64.7513 26.8784 67.7253C26.8784 71.4667 23.4248 73.0801 19.3607 73.0801C14.878 73.0801 12.1308 71.1091 12.1046 67.2369H12.0872Z" fill="#FAF9F9"/>
<path d="M27.803 64.3327C27.803 58.0708 31.7712 55.655 36.2277 55.655C40.6843 55.655 44.199 57.9138 44.199 64.2716C44.199 64.8821 44.1641 65.2048 44.103 65.5624H32.2944C32.5561 68.3707 34.0038 69.4957 36.3237 69.4957C38.4865 69.4957 39.4197 68.6236 39.8122 67.2718H43.9722C43.135 71.1091 40.161 73.0801 36.2626 73.0801C32.0066 73.0801 27.8117 70.7254 27.8117 64.3327H27.803ZM39.7424 62.7803C39.6814 60.8442 38.6784 59.2308 36.0969 59.2308C33.8991 59.2308 32.6084 60.4605 32.2857 62.7803H39.7424Z" fill="#FAF9F9"/>
<path d="M64.3624 59.562C62.688 59.562 61.3274 60.687 61.3274 63.2424V72.766H56.618V63.2424C56.618 60.6957 55.554 59.562 53.8446 59.562C52.1352 59.562 50.8096 60.687 50.8096 63.2424V72.766H46.1001V55.9863H50.8096V59.5009H51.0015C51.2631 57.9224 52.9725 55.6636 55.9028 55.6636C58.2227 55.6636 60.1937 56.9194 60.9699 59.5009C61.2926 57.9485 63.1327 55.6636 66.2986 55.6636C69.4644 55.6636 71.8453 57.7567 71.8453 62.1173V72.766H67.1358V63.2424C67.1358 60.6957 66.0718 59.562 64.3624 59.562Z" fill="#FAF9F9"/>
<path d="M73.7554 68.3008C73.7554 64.5943 76.7904 63.7832 79.6946 63.3646L82.5377 62.9459C84.0901 62.7192 84.5698 62.4576 84.5698 61.5244V61.2976C84.5698 59.5272 83.4098 59.0388 81.9534 59.0388C80.4969 59.0388 79.0841 59.5272 79.0841 61.2627V61.5505L74.6624 61.5854V60.8092C74.6624 57.5213 76.8601 55.6462 82.0842 55.6462C87.3082 55.6462 89.1833 57.4515 89.1833 61.097V72.7487H84.7006V69.7834H84.5087C84.186 70.6904 82.8342 73.0713 79.1538 73.0713C76.4154 73.0713 73.7641 71.7457 73.7641 68.2921L73.7554 68.3008ZM80.7586 69.7224C82.9825 69.7224 84.5698 68.2398 84.5698 66.9141V65.039C84.3081 65.4228 83.5058 65.5536 82.7644 65.6844L80.4097 66.103C78.962 66.3298 78.4736 67.0362 78.4736 67.9083C78.4736 68.9375 79.1538 69.7137 80.7673 69.7137L80.7586 69.7224Z" fill="#FAF9F9"/>
</g>
<defs>
<clipPath id="clip0_3105_7776">
<rect width="106.635" height="72.1598" fill="white" transform="translate(0.182617 0.920166)"/>
</clipPath>
</defs>
</svg>
