<svg width="107" height="74" viewBox="0 0 107 74" fill="none" xmlns="http://www.w3.org/2000/svg">
<g clip-path="url(#clip0_3107_7795)">
<path d="M0.837012 24.8165C0.837012 14.4033 0.819569 23.4996 0.837012 13.0777C0.854454 5.15003 5.06683 0.946377 13.073 0.937655C29.9748 0.920213 46.8766 0.911492 63.7872 0.937655C71.5753 0.946377 75.9533 5.41167 75.9621 13.2347C75.9621 25.7148 75.9708 18.6854 75.9621 31.1656C75.9533 38.5874 71.4706 43.1573 64.1011 43.1748C50.8361 43.2097 37.5623 43.2271 24.2972 43.1399C22.3611 43.1312 21.018 43.7068 19.6837 45.0847C15.105 49.8117 9.80248 59.719 5.14532 64.3762C4.10749 65.414 3.10454 66.7397 1.39517 65.9286C-0.192099 65.1786 0.252686 63.5826 0.252686 62.2569C0.226523 51.5472 0.845733 35.5437 0.845733 24.8252L0.837012 24.8165Z" fill="#2B45D8"/>
<path d="M106.8 33.7296C106.8 44.5266 106.8 55.3322 106.8 66.1292C106.8 67.3763 107.105 68.824 105.623 69.4869C104.062 70.1933 103.068 69.1118 102.073 68.1176C97.294 63.3209 92.4799 58.5591 87.753 53.7101C86.5669 52.4978 85.3721 51.9484 83.6452 51.9833C77.7584 52.0879 71.8628 52.0181 65.976 52.0269C64.4323 52.0269 62.8188 52.0181 62.8188 49.9163C62.8188 47.954 64.2579 47.7273 65.8887 47.6226C74.3396 47.0906 80.3835 40.3927 80.4271 31.4185C80.4882 19.0517 80.4358 26.1945 80.4445 13.8277C80.4445 9.97289 80.6277 9.78102 84.3691 9.7723C88.1018 9.76358 91.8345 9.70253 95.5585 9.78974C102.361 9.938 106.748 14.351 106.783 21.1448C106.844 31.8458 106.8 23.0286 106.8 33.7296Z" fill="#E9EFFF"/>
<path d="M12.0874 67.2369H16.3172C16.4829 68.8154 17.5469 69.5567 19.3871 69.5567C20.9657 69.5567 22.0297 69.0073 22.0297 67.8125C22.0297 67.0363 21.5151 66.5566 20.4162 66.3299L17.3202 65.6845C13.8055 64.8734 12.5409 63.0071 12.5409 60.7831C12.5409 57.5214 15.3492 55.655 19.4133 55.655C23.896 55.655 26.2508 57.8528 26.3205 61.4634H22.3872C22.1954 59.7889 21.0965 59.1697 19.483 59.1697C17.8696 59.1697 17.1283 59.754 17.1283 60.6523C17.1283 61.4896 17.7388 62.039 18.8726 62.2658L22.0384 62.946C24.6809 63.5303 26.8787 64.7513 26.8787 67.7253C26.8787 71.4667 23.4251 73.0801 19.3609 73.0801C14.8782 73.0801 12.131 71.1091 12.1048 67.2369H12.0874Z" fill="#FAF9F9"/>
<path d="M27.8032 64.3327C27.8032 58.0708 31.7714 55.655 36.228 55.655C40.6845 55.655 44.1992 57.9138 44.1992 64.2716C44.1992 64.8821 44.1643 65.2048 44.1033 65.5624H32.2947C32.5563 68.3707 34.004 69.4957 36.3239 69.4957C38.4868 69.4957 39.42 68.6236 39.8124 67.2718H43.9725C43.1352 71.1091 40.1613 73.0801 36.2629 73.0801C32.0069 73.0801 27.8119 70.7254 27.8119 64.3327H27.8032ZM39.7426 62.7803C39.6816 60.8442 38.6787 59.2308 36.0972 59.2308C33.8994 59.2308 32.6086 60.4605 32.286 62.7803H39.7426Z" fill="#FAF9F9"/>
<path d="M64.3629 59.562C62.6884 59.562 61.3279 60.687 61.3279 63.2424V72.766H56.6184V63.2424C56.6184 60.6957 55.5544 59.562 53.8451 59.562C52.1357 59.562 50.8101 60.687 50.8101 63.2424V72.766H46.1006V55.9863H50.8101V59.5009H51.0019C51.2636 57.9224 52.9729 55.6636 55.9033 55.6636C58.2232 55.6636 60.1942 56.9194 60.9704 59.5009C61.293 57.9485 63.1332 55.6636 66.2991 55.6636C69.4649 55.6636 71.8458 57.7567 71.8458 62.1173V72.766H67.1363V63.2424C67.1363 60.6957 66.0723 59.562 64.3629 59.562Z" fill="#FAF9F9"/>
<path d="M73.7554 68.3008C73.7554 64.5943 76.7904 63.7832 79.6946 63.3646L82.5377 62.9459C84.0901 62.7192 84.5698 62.4576 84.5698 61.5244V61.2976C84.5698 59.5272 83.4098 59.0388 81.9534 59.0388C80.4969 59.0388 79.0841 59.5272 79.0841 61.2627V61.5505L74.6624 61.5854V60.8092C74.6624 57.5213 76.8601 55.6462 82.0842 55.6462C87.3082 55.6462 89.1833 57.4515 89.1833 61.097V72.7487H84.7006V69.7834H84.5087C84.186 70.6904 82.8342 73.0713 79.1538 73.0713C76.4154 73.0713 73.7641 71.7457 73.7641 68.2921L73.7554 68.3008ZM80.7586 69.7224C82.9825 69.7224 84.5698 68.2398 84.5698 66.9141V65.039C84.3081 65.4228 83.5058 65.5536 82.7644 65.6844L80.4097 66.103C78.962 66.3298 78.4736 67.0362 78.4736 67.9083C78.4736 68.9375 79.1538 69.7137 80.7673 69.7137L80.7586 69.7224Z" fill="#FAF9F9"/>
</g>
<defs>
<clipPath id="clip0_3107_7795">
<rect width="106.635" height="72.1598" fill="white" transform="translate(0.182617 0.920166)"/>
</clipPath>
</defs>
</svg>
