<svg width="123" height="83" viewBox="0 0 123 83" fill="none" xmlns="http://www.w3.org/2000/svg">
<g clip-path="url(#clip0_3105_7765)">
<path d="M1.11494 27.5298C1.11494 15.5898 1.09494 26.0198 1.11494 14.0698C1.13494 4.97979 5.96494 0.159793 15.1449 0.149793C34.5249 0.129793 53.9049 0.119793 73.2949 0.149793C82.2249 0.159793 87.2449 5.27979 87.2549 14.2498C87.2549 28.5598 87.2649 20.4998 87.2549 34.8098C87.2449 43.3198 82.1049 48.5598 73.6549 48.5798C58.4449 48.6198 43.2249 48.6398 28.0149 48.5398C25.7949 48.5298 24.2549 49.1898 22.7249 50.7698C17.4749 56.1898 11.3949 67.5498 6.05494 72.8898C4.86494 74.0798 3.71494 75.5998 1.75494 74.6698C-0.0650636 73.8098 0.444936 71.9798 0.444936 70.4598C0.414936 58.1798 1.12494 39.8298 1.12494 27.5398L1.11494 27.5298Z" fill="#2B45D8"/>
<path d="M122.615 37.7497C122.615 50.1297 122.615 62.5197 122.615 74.8997C122.615 76.3297 122.965 77.9897 121.265 78.7497C119.475 79.5597 118.335 78.3197 117.195 77.1797C111.715 71.6797 106.195 66.2197 100.775 60.6597C99.4151 59.2697 98.0451 58.6397 96.0651 58.6797C89.3151 58.7997 82.5551 58.7197 75.8051 58.7297C74.0351 58.7297 72.1851 58.7197 72.1851 56.3097C72.1851 54.0597 73.8351 53.7997 75.7051 53.6797C85.3951 53.0697 92.3251 45.3897 92.3751 35.0997C92.4451 20.9197 92.3851 29.1097 92.3951 14.9297C92.3951 10.5097 92.6051 10.2897 96.8951 10.2797C101.175 10.2697 105.455 10.1997 109.725 10.2997C117.525 10.4697 122.555 15.5297 122.595 23.3197C122.665 35.5897 122.615 25.4797 122.615 37.7497Z" fill="#E9EFFF"/>
<path d="M14.0149 76.1699H18.8649C19.0549 77.9799 20.2749 78.8299 22.3849 78.8299C24.1949 78.8299 25.4149 78.1999 25.4149 76.8299C25.4149 75.9399 24.8249 75.3899 23.5649 75.1299L20.0149 74.3899C15.9849 73.4599 14.5349 71.3199 14.5349 68.7699C14.5349 65.0299 17.7549 62.8899 22.4149 62.8899C27.5549 62.8899 30.2549 65.4099 30.3349 69.5499H25.8249C25.6049 67.6299 24.3449 66.9199 22.4949 66.9199C20.6449 66.9199 19.7949 67.5899 19.7949 68.6199C19.7949 69.5799 20.4949 70.2099 21.7949 70.4699L25.4249 71.2499C28.4549 71.9199 30.9749 73.3199 30.9749 76.7299C30.9749 81.0199 27.0149 82.8699 22.3549 82.8699C17.2149 82.8699 14.0649 80.6099 14.0349 76.1699H14.0149Z" fill="black"/>
<path d="M32.0349 72.8399C32.0349 65.6599 36.5849 62.8899 41.6949 62.8899C46.8049 62.8899 50.8349 65.4799 50.8349 72.7699C50.8349 73.4699 50.7949 73.8399 50.7249 74.2499H37.1849C37.4849 77.4699 39.1449 78.7599 41.8049 78.7599C44.2849 78.7599 45.3549 77.7599 45.8049 76.2099H50.5749C49.6149 80.6099 46.2049 82.8699 41.7349 82.8699C36.8549 82.8699 32.0449 80.1699 32.0449 72.8399H32.0349ZM45.7249 71.0599C45.6549 68.8399 44.5049 66.9899 41.5449 66.9899C39.0249 66.9899 37.5449 68.3999 37.1749 71.0599H45.7249Z" fill="black"/>
<path d="M73.9549 67.3699C72.0349 67.3699 70.4749 68.6599 70.4749 71.5899V82.5099H65.0749V71.5899C65.0749 68.6699 63.8549 67.3699 61.8949 67.3699C59.9349 67.3699 58.4149 68.6599 58.4149 71.5899V82.5099H53.0149V63.2699H58.4149V67.2999H58.6349C58.9349 65.4899 60.8949 62.8999 64.2549 62.8999C66.9149 62.8999 69.1749 64.3399 70.0649 67.2999C70.4349 65.5199 72.5449 62.8999 76.1749 62.8999C79.8049 62.8999 82.5349 65.2999 82.5349 70.2999V82.5099H77.1349V71.5899C77.1349 68.6699 75.9149 67.3699 73.9549 67.3699Z" fill="black"/>
<path d="M84.7249 77.3899C84.7249 73.1399 88.2049 72.2099 91.5349 71.7299L94.7949 71.2499C96.5749 70.9899 97.1249 70.6899 97.1249 69.6199V69.3599C97.1249 67.3299 95.7949 66.7699 94.1249 66.7699C92.4549 66.7699 90.8349 67.3299 90.8349 69.3199V69.6499L85.7649 69.6899V68.7999C85.7649 65.0299 88.2849 62.8799 94.2749 62.8799C100.265 62.8799 102.415 64.9499 102.415 69.1299V82.4899H97.2749V79.0899H97.0549C96.6849 80.1299 95.1349 82.8599 90.9149 82.8599C87.7749 82.8599 84.7349 81.3399 84.7349 77.3799L84.7249 77.3899ZM92.7549 79.0199C95.3049 79.0199 97.1249 77.3199 97.1249 75.7999V73.6499C96.8249 74.0899 95.9049 74.2399 95.0549 74.3899L92.3549 74.8699C90.6949 75.1299 90.1348 75.9399 90.1348 76.9399C90.1348 78.1199 90.9149 79.0099 92.7649 79.0099L92.7549 79.0199Z" fill="black"/>
</g>
<defs>
<clipPath id="clip0_3105_7765">
<rect width="122.27" height="82.74" fill="white" transform="translate(0.36499 0.129883)"/>
</clipPath>
</defs>
</svg>
