<svg width="20" height="20" viewBox="0 0 20 20" fill="none" xmlns="http://www.w3.org/2000/svg">
<g id="vuesax/bulk/tick-circle">
<g id="tick-circle">
<path id="Vector" opacity="0.4" d="M10 18.3334C14.6024 18.3334 18.3334 14.6025 18.3334 10.0001C18.3334 5.39771 14.6024 1.66675 10 1.66675C5.39765 1.66675 1.66669 5.39771 1.66669 10.0001C1.66669 14.6025 5.39765 18.3334 10 18.3334Z" fill="#2B45D8"/>
<path id="Vector_2" d="M8.81664 12.9834C8.64997 12.9834 8.49164 12.9167 8.37497 12.8001L6.01664 10.4417C5.77497 10.2001 5.77497 9.80008 6.01664 9.55841C6.2583 9.31675 6.6583 9.31675 6.89997 9.55841L8.81664 11.4751L13.1 7.19175C13.3416 6.95008 13.7416 6.95008 13.9833 7.19175C14.225 7.43341 14.225 7.83341 13.9833 8.07508L9.2583 12.8001C9.14164 12.9167 8.9833 12.9834 8.81664 12.9834Z" fill="#2B45D8"/>
</g>
</g>
</svg>
