<svg width="20" height="20" viewBox="0 0 20 20" fill="none" xmlns="http://www.w3.org/2000/svg">
<g id="vuesax/bulk/tick-circle">
<g id="tick-circle">
<path id="Vector" opacity="0.4" d="M10 18.3334C14.6024 18.3334 18.3333 14.6025 18.3333 10.0001C18.3333 5.39771 14.6024 1.66675 10 1.66675C5.39763 1.66675 1.66667 5.39771 1.66667 10.0001C1.66667 14.6025 5.39763 18.3334 10 18.3334Z" fill="white"/>
<path id="Vector_2" d="M8.81667 12.9834C8.65 12.9834 8.49167 12.9167 8.375 12.8001L6.01667 10.4417C5.775 10.2001 5.775 9.80008 6.01667 9.55841C6.25834 9.31675 6.65834 9.31675 6.9 9.55841L8.81667 11.4751L13.1 7.19175C13.3417 6.95008 13.7417 6.95008 13.9833 7.19175C14.225 7.43341 14.225 7.83341 13.9833 8.07508L9.25834 12.8001C9.14167 12.9167 8.98334 12.9834 8.81667 12.9834Z" fill="white"/>
</g>
</g>
</svg>
