<svg width="1280" height="406" viewBox="0 0 1280 406" fill="none" xmlns="http://www.w3.org/2000/svg">
<path d="M-16.0309 406.001L-43 404.226C-34.9363 280.867 -1.94829 203.888 54.9994 175.373C124.486 140.607 201.188 184.325 282.366 230.59C362.501 276.237 445.376 323.466 521.885 293.253C597.16 263.542 629.762 222.679 664.293 179.425C700.368 134.202 741.304 82.9602 834.828 39.7827C1009.53 -40.9389 1186.31 23.8467 1220 37.6604L1220.69 37.9305C1267.95 57.0691 1308.27 80.9923 1344 111.051L1326.6 131.733C1293.07 103.526 1255.11 81.0309 1210.54 62.9727L1209.73 62.6255C1177.9 49.5835 1010.69 -11.7294 846.171 64.2847C758.434 104.8 721.318 151.296 685.436 196.287C648.59 242.435 613.827 285.999 531.84 318.372C443.254 353.331 354.669 302.861 269.016 254.05C194.282 211.451 123.676 171.245 67.0757 199.528C19.3106 223.413 -8.62305 292.867 -16.0309 405.962V406.001Z" fill="#151923"/>
</svg>
