<svg width="21" height="20" viewBox="0 0 21 20" fill="none" xmlns="http://www.w3.org/2000/svg">
<path opacity="0.4" d="M18.2236 9.99996C18.2236 14.3262 14.7165 17.8333 10.3903 17.8333C6.06405 17.8333 2.55695 14.3262 2.55695 9.99996C2.55695 5.67373 6.06405 2.16663 10.3903 2.16663C14.7165 2.16663 18.2236 5.67373 18.2236 9.99996Z" fill="#FAF9F9" stroke="#F8F9FA"/>
<path d="M10.5153 9.37496V9.87496H11.0153H13.7236C13.7538 9.87496 13.785 9.88724 13.8107 9.91289C13.8363 9.93853 13.8486 9.96981 13.8486 9.99996C13.8486 10.0301 13.8363 10.0614 13.8107 10.087C13.785 10.1127 13.7538 10.125 13.7236 10.125H11.0153H10.5153V10.625V13.3333C10.5153 13.3634 10.503 13.3947 10.4774 13.4204C10.4517 13.446 10.4204 13.4583 10.3903 13.4583C10.3601 13.4583 10.3289 13.446 10.3032 13.4204C10.2776 13.3947 10.2653 13.3634 10.2653 13.3333V10.625V10.125H9.76528H7.05695C7.0268 10.125 6.99552 10.1127 6.96987 10.087C6.94423 10.0614 6.93195 10.0301 6.93195 9.99996C6.93195 9.96981 6.94423 9.93853 6.96987 9.91289C6.99552 9.88724 7.0268 9.87496 7.05695 9.87496H9.76528H10.2653V9.37496V6.66663C10.2653 6.63648 10.2776 6.6052 10.3032 6.57955C10.3289 6.55391 10.3601 6.54163 10.3903 6.54163C10.4204 6.54163 10.4517 6.55391 10.4774 6.57955C10.503 6.6052 10.5153 6.63648 10.5153 6.66663V9.37496Z" fill="#FAF9F9" stroke="#F8F9FA"/>
</svg>
