<svg width="21" height="20" viewBox="0 0 21 20" fill="none" xmlns="http://www.w3.org/2000/svg">
<path opacity="0.4" d="M13.7903 2.5H7.15695C4.28195 2.5 2.55695 4.21667 2.55695 7.1V13.725C2.55695 16.6167 4.28195 18.3333 7.15695 18.3333H13.7819C16.6653 18.3333 18.3819 16.6167 18.3819 13.7333V7.1C18.3903 4.21667 16.6653 2.5 13.7903 2.5Z" fill="#F18805"/>
<path d="M18.4069 2.48324C16.9153 0.983238 15.4569 0.949904 13.9236 2.48324L12.9819 3.41657C12.8986 3.4999 12.8736 3.61657 12.9069 3.7249C13.4903 5.76657 15.1236 7.3999 17.1653 7.98324C17.1903 7.99157 17.2319 7.99157 17.2569 7.99157C17.3403 7.99157 17.4236 7.95824 17.4819 7.8999L18.4069 6.96657C19.1653 6.20824 19.5403 5.48324 19.5403 4.74157C19.5403 3.99157 19.1653 3.2499 18.4069 2.48324Z" fill="#F18805"/>
<path d="M15.7736 8.68353C15.5486 8.57519 15.3319 8.46686 15.1319 8.34186C14.9653 8.24186 14.7986 8.13353 14.6403 8.01686C14.5069 7.93353 14.3569 7.80853 14.2069 7.68353C14.1903 7.6752 14.1403 7.63353 14.0736 7.56686C13.8153 7.35853 13.5403 7.07519 13.2819 6.76686C13.2653 6.75019 13.2153 6.70019 13.1736 6.62519C13.0903 6.53353 12.9653 6.3752 12.8569 6.2002C12.7653 6.08353 12.6569 5.91686 12.5569 5.74186C12.4319 5.53353 12.3236 5.3252 12.2236 5.10853C12.1153 4.8752 12.0319 4.65853 11.9569 4.4502L7.47359 8.93353C7.18193 9.22519 6.89859 9.7752 6.84026 10.1835L6.48193 12.6669C6.40693 13.1919 6.54859 13.6835 6.87359 14.0085C7.14859 14.2835 7.52359 14.4252 7.94026 14.4252C8.03193 14.4252 8.12359 14.4169 8.21526 14.4085L10.6903 14.0585C11.0986 14.0002 11.6486 13.7252 11.9403 13.4252L16.4236 8.94186C16.2153 8.87519 16.0069 8.78353 15.7736 8.68353Z" fill="#F18805"/>
</svg>
