<svg width="24" height="24" viewBox="0 0 24 24" fill="none" xmlns="http://www.w3.org/2000/svg">
<path opacity="0.4" d="M13.1428 20.2712L13.1362 20.2752L13.1297 20.2794L11.7341 21.1765C10.7422 21.7829 9.4001 21.0777 9.4001 19.9V14.6C9.4001 14.1646 9.27823 13.699 9.11434 13.2893C8.94937 12.8769 8.72628 12.4823 8.49053 12.1876L8.47705 12.1708L8.46217 12.1551L7.72918 11.3855L13.1978 2.59998H18.6001C19.424 2.59998 20.1001 3.27612 20.1001 4.09998V6.29998C20.1001 6.60563 20.0016 6.98326 19.8324 7.35557C19.6667 7.72024 19.4525 8.03696 19.2567 8.2362L14.9741 12.0208C14.599 12.3355 14.3099 12.7822 14.1148 13.2422C13.9177 13.7068 13.8001 14.2231 13.8001 14.7V19C13.8001 19.2005 13.7294 19.4714 13.594 19.7318C13.457 19.9953 13.2869 20.1848 13.1428 20.2712Z" fill="#F8F9FA" stroke="#F8F9FA"/>
<path d="M10.399 2.59998L6.03685 9.59801L4.66188 8.15505L4.66199 8.15495L4.65346 8.14642C4.4564 7.94936 4.26275 7.65438 4.11866 7.33295C3.97263 7.0072 3.8999 6.70449 3.8999 6.49998V4.19998C3.8999 3.26 4.59189 2.59998 5.3999 2.59998H10.399Z" fill="#FAF9F9" stroke="#F8F9FA"/>
</svg>
