<svg width="25" height="25" viewBox="0 0 25 25" fill="none" xmlns="http://www.w3.org/2000/svg">
<path opacity="0.4" d="M11.0971 2.94995C11.7971 2.35995 12.9271 2.35995 13.6071 2.94995L15.1871 4.29995C15.4871 4.54995 16.0571 4.75995 16.4571 4.75995H18.1571C19.2171 4.75995 20.0871 5.62995 20.0871 6.68995V8.38995C20.0871 8.78995 20.2971 9.34995 20.5471 9.64995L21.8971 11.2299C22.4871 11.9299 22.4871 13.0599 21.8971 13.7399L20.5471 15.3199C20.2971 15.6199 20.0871 16.1799 20.0871 16.5799V18.2799C20.0871 19.3399 19.2171 20.2099 18.1571 20.2099H16.4571C16.0571 20.2099 15.4971 20.4199 15.1971 20.6699L13.6171 22.0199C12.9171 22.6099 11.7871 22.6099 11.1071 22.0199L9.52705 20.6699C9.22705 20.4199 8.65705 20.2099 8.26705 20.2099H6.51705C5.45705 20.2099 4.58705 19.3399 4.58705 18.2799V16.5699C4.58705 16.1799 4.38705 15.6099 4.13705 15.3199L2.78705 13.7299C2.20705 13.0399 2.20705 11.9199 2.78705 11.2299L4.13705 9.63995C4.38705 9.33995 4.58705 8.77995 4.58705 8.38995V6.69995C4.58705 5.63995 5.45705 4.76995 6.51705 4.76995H8.24705C8.64705 4.76995 9.20705 4.55995 9.50705 4.30995L11.0971 2.94995Z" fill="#FAF9F9"/>
<path d="M12.3472 17.37C11.7972 17.37 11.3472 16.92 11.3472 16.37C11.3472 15.82 11.7872 15.37 12.3472 15.37C12.8972 15.37 13.3472 15.82 13.3472 16.37C13.3472 16.92 12.9072 17.37 12.3472 17.37Z" fill="#FAF9F9"/>
<path d="M12.3472 14.22C11.9372 14.22 11.5972 13.88 11.5972 13.47V8.63C11.5972 8.22 11.9372 7.88 12.3472 7.88C12.7572 7.88 13.0972 8.22 13.0972 8.63V13.46C13.0972 13.88 12.7672 14.22 12.3472 14.22Z" fill="#FAF9F9"/>
</svg>
