<svg width="25" height="24" viewBox="0 0 25 24" fill="none" xmlns="http://www.w3.org/2000/svg">
<path opacity="0.4" d="M22.9103 16.82L19.7803 9.50002C19.2103 8.16002 18.3603 7.40002 17.3903 7.35002C16.4303 7.30002 15.5003 7.97002 14.7903 9.25002L12.8903 12.66C12.4903 13.38 11.9203 13.81 11.3003 13.86C10.6703 13.92 10.0403 13.59 9.53027 12.94L9.31027 12.66C8.60027 11.77 7.72027 11.34 6.82027 11.43C5.92027 11.52 5.15027 12.14 4.64027 13.15L2.91027 16.6C2.29027 17.85 2.35027 19.3 3.08027 20.48C3.81027 21.66 5.08027 22.37 6.47027 22.37H19.2303C20.5703 22.37 21.8203 21.7 22.5603 20.58C23.3203 19.46 23.4403 18.05 22.9103 16.82Z" fill="#FAF9F9"/>
<path d="M7.86029 8.38C9.72701 8.38 11.2403 6.86672 11.2403 5C11.2403 3.13327 9.72701 1.62 7.86029 1.62C5.99356 1.62 4.48029 3.13327 4.48029 5C4.48029 6.86672 5.99356 8.38 7.86029 8.38Z" fill="#FAF9F9"/>
</svg>
