<svg width="51" height="50" viewBox="0 0 51 50" fill="none" xmlns="http://www.w3.org/2000/svg">
<path opacity="0.4" d="M34.7444 45.8333H16.0361C8.72358 45.8333 7.14025 41.6458 7.74442 36.5208L9.61941 20.8958C10.0986 16.8541 10.8069 13.5416 17.8902 13.5416H32.8903C39.9736 13.5416 40.6819 16.8541 41.1611 20.8958L42.7236 33.9166L43.0361 36.5208C43.0569 36.6875 43.0778 36.8541 43.0986 37.0208C43.5361 41.9166 41.8278 45.8333 34.7444 45.8333Z" fill="#FAF9F9"/>
<path d="M33.7236 18.2291C32.8694 18.2291 32.1611 17.5208 32.1611 16.6666V9.37496C32.1611 7.12496 30.7653 5.72913 28.5153 5.72913H22.2653C20.0153 5.72913 18.6194 7.12496 18.6194 9.37496V16.6666C18.6194 17.5208 17.9111 18.2291 17.0569 18.2291C16.2028 18.2291 15.4944 17.5208 15.4944 16.6666V9.37496C15.4944 5.39579 18.2861 2.60413 22.2653 2.60413H28.5153C32.4944 2.60413 35.2861 5.39579 35.2861 9.37496V16.6666C35.2861 17.5208 34.5778 18.2291 33.7236 18.2291Z" fill="#FAF9F9"/>
<path d="M43.0986 37.0208C43.0361 37.0416 42.9736 37.0416 42.9111 37.0416H17.0569C16.2028 37.0416 15.4944 36.3333 15.4944 35.4791C15.4944 34.6041 16.2028 33.9166 17.0569 33.9166H42.7236L43.0361 36.5208C43.0569 36.6875 43.0778 36.8541 43.0986 37.0208Z" fill="#FAF9F9"/>
</svg>
