<svg width="21" height="20" viewBox="0 0 21 20" fill="none" xmlns="http://www.w3.org/2000/svg">
<path opacity="0.4" d="M14.3819 1.6665H7.40692C4.37359 1.6665 2.56525 3.47484 2.56525 6.50817V13.4832C2.56525 16.5165 4.37359 18.3248 7.40692 18.3248H14.3819C17.4153 18.3248 19.2236 16.5165 19.2236 13.4832V6.50817C19.2236 3.47484 17.4153 1.6665 14.3819 1.6665Z" fill="#B00020"/>
<path d="M14.9403 7.0499C14.2403 6.98323 13.5986 6.94157 12.9736 6.8999L12.907 6.4999C12.8486 6.0999 12.7236 5.2749 11.4653 5.2749H10.307C9.06529 5.2749 8.93196 6.06657 8.86529 6.49157L8.79863 6.88323C8.44029 6.90823 8.09029 6.9249 7.73196 6.95823L6.82362 7.0499C6.50695 7.08323 6.28195 7.35823 6.31528 7.6749C6.34862 7.96657 6.59029 8.19157 6.88196 8.19157C6.89862 8.19157 6.92362 8.19157 6.94028 8.19157L7.84029 8.0999C8.34029 8.05824 8.84862 8.01657 9.34862 7.99157C10.3653 7.9499 11.382 7.96657 12.407 8.01657C13.1653 8.0499 13.957 8.10824 14.8236 8.19157C14.8403 8.19157 14.857 8.19157 14.8736 8.19157C15.1653 8.19157 15.4153 7.96657 15.4403 7.6749C15.482 7.35823 15.257 7.0749 14.9403 7.0499Z" fill="#B00020"/>
<path d="M14.0819 9.24997C13.9402 9.09163 13.7319 9.0083 13.5236 9.0083H8.2569C8.04857 9.0083 7.84024 9.09997 7.69857 9.24997C7.55691 9.4083 7.4819 9.61663 7.49857 9.82497L7.75691 13.125C7.80691 13.8333 7.86524 14.7166 9.46524 14.7166H12.3152C13.9152 14.7166 13.9736 13.8333 14.0236 13.125L14.2819 9.82497C14.2986 9.61663 14.2236 9.4083 14.0819 9.24997Z" fill="#B00020"/>
</svg>
