<svg width="41" height="40" viewBox="0 0 41 40" fill="none" xmlns="http://www.w3.org/2000/svg">
<path opacity="0.4" d="M20.7804 36.6667C29.9852 36.6667 37.4471 29.2048 37.4471 20C37.4471 10.7953 29.9852 3.33337 20.7804 3.33337C11.5757 3.33337 4.11377 10.7953 4.11377 20C4.11377 29.2048 11.5757 36.6667 20.7804 36.6667Z" fill="#FAF9F9"/>
<path d="M27.4471 18.75H22.0304V13.3334C22.0304 12.65 21.4638 12.0834 20.7804 12.0834C20.0971 12.0834 19.5304 12.65 19.5304 13.3334V18.75H14.1138C13.4304 18.75 12.8638 19.3167 12.8638 20C12.8638 20.6834 13.4304 21.25 14.1138 21.25H19.5304V26.6667C19.5304 27.35 20.0971 27.9167 20.7804 27.9167C21.4638 27.9167 22.0304 27.35 22.0304 26.6667V21.25H27.4471C28.1304 21.25 28.6971 20.6834 28.6971 20C28.6971 19.3167 28.1304 18.75 27.4471 18.75Z" fill="#FAF9F9"/>
</svg>
