<svg width="25" height="24" viewBox="0 0 25 24" fill="none" xmlns="http://www.w3.org/2000/svg">
<path opacity="0.4" d="M22.0303 9.15C19.7203 5.52 16.3403 3.43 12.7803 3.43C11.0003 3.43 9.27027 3.95 7.69027 4.92C6.11027 5.9 4.69027 7.33 3.53027 9.15C2.53027 10.72 2.53027 13.27 3.53027 14.84C5.84027 18.48 9.22027 20.56 12.7803 20.56C14.5603 20.56 16.2903 20.04 17.8703 19.07C19.4503 18.09 20.8703 16.66 22.0303 14.84C23.0303 13.28 23.0303 10.72 22.0303 9.15ZM12.7803 16.04C10.5403 16.04 8.74027 14.23 8.74027 12C8.74027 9.77 10.5403 7.96 12.7803 7.96C15.0203 7.96 16.8203 9.77 16.8203 12C16.8203 14.23 15.0203 16.04 12.7803 16.04Z" fill="#FAF9F9"/>
<path d="M12.7803 9.14C11.2103 9.14 9.9303 10.42 9.9303 12C9.9303 13.57 11.2103 14.85 12.7803 14.85C14.3503 14.85 15.6403 13.57 15.6403 12C15.6403 10.43 14.3503 9.14 12.7803 9.14Z" fill="#FAF9F9"/>
</svg>
