<svg width="15" height="14" viewBox="0 0 15 14" fill="none" xmlns="http://www.w3.org/2000/svg">
<path opacity="0.4" d="M9.99663 10.7508H7.66329L5.06745 12.4775C4.68245 12.7342 4.16329 12.46 4.16329 11.9933V10.7508C2.41329 10.7508 1.24663 9.58416 1.24663 7.83416V4.33416C1.24663 2.58416 2.41329 1.4175 4.16329 1.4175H9.99663C11.7466 1.4175 12.9133 2.58416 12.9133 4.33416V7.83416C12.9133 9.58416 11.7466 10.7508 9.99663 10.7508Z" fill="#FAF9F9"/>
<path d="M7.07995 7.06416C6.84078 7.06416 6.64245 6.86583 6.64245 6.62666V6.50419C6.64245 5.82752 7.13827 5.49501 7.32494 5.36668C7.54077 5.22085 7.61077 5.12168 7.61077 4.97002C7.61077 4.67835 7.37162 4.43916 7.07995 4.43916C6.78828 4.43916 6.54913 4.67835 6.54913 4.97002C6.54913 5.20918 6.3508 5.40752 6.11163 5.40752C5.87247 5.40752 5.67413 5.20918 5.67413 4.97002C5.67413 4.19418 6.30412 3.56416 7.07995 3.56416C7.85578 3.56416 8.48577 4.19418 8.48577 4.97002C8.48577 5.63502 7.99579 5.96751 7.81496 6.09001C7.58746 6.24167 7.51745 6.34085 7.51745 6.50419V6.62666C7.51745 6.87166 7.31912 7.06416 7.07995 7.06416Z" fill="#FAF9F9"/>
<path d="M7.07996 8.51665C6.83496 8.51665 6.64246 8.31831 6.64246 8.07915C6.64246 7.83998 6.84079 7.64165 7.07996 7.64165C7.31912 7.64165 7.51746 7.83998 7.51746 8.07915C7.51746 8.31831 7.32496 8.51665 7.07996 8.51665Z" fill="#FAF9F9"/>
</svg>
