<svg width="25" height="24" viewBox="0 0 25 24" fill="none" xmlns="http://www.w3.org/2000/svg">
<path opacity="0.4" d="M10.13 4.23L18.69 8.51C22.53 10.43 22.53 13.57 18.69 15.49L10.13 19.77C4.36998 22.65 2.01998 20.29 4.89998 14.54L5.76998 12.81C6.01998 12.3 6.01998 11.71 5.76998 11.2L4.89998 9.46C2.01998 3.71 4.37998 1.35 10.13 4.23Z" fill="#FAF9F9"/>
<path d="M15.46 12.75H10.06C9.65 12.75 9.31 12.41 9.31 12C9.31 11.59 9.65 11.25 10.06 11.25H15.46C15.87 11.25 16.21 11.59 16.21 12C16.21 12.41 15.87 12.75 15.46 12.75Z" fill="#FAF9F9"/>
</svg>
