<svg width="25" height="24" viewBox="0 0 25 24" fill="none" xmlns="http://www.w3.org/2000/svg">
<path opacity="0.4" d="M16.4302 2H8.05023C4.41023 2 2.24023 4.17 2.24023 7.81V16.18C2.24023 19.83 4.41023 22 8.05023 22H16.4202C20.0602 22 22.2302 19.83 22.2302 16.19V7.81C22.2402 4.17 20.0702 2 16.4302 2Z" fill="#FAF9F9"/>
<path d="M10.8202 15.58C10.6202 15.58 10.4302 15.5 10.2902 15.36L7.46024 12.53C7.17024 12.24 7.17024 11.76 7.46024 11.47C7.75024 11.18 8.23024 11.18 8.52024 11.47L10.8202 13.77L15.9602 8.63C16.2502 8.34 16.7302 8.34 17.0202 8.63C17.3102 8.92 17.3102 9.4 17.0202 9.69L11.3502 15.36C11.2102 15.5 11.0202 15.58 10.8202 15.58Z" fill="#FAF9F9"/>
</svg>
