<svg width="25" height="24" viewBox="0 0 25 24" fill="none" xmlns="http://www.w3.org/2000/svg">
<path opacity="0.4" d="M21.16 8.58003V15.42C21.16 16.54 20.56 17.58 19.59 18.15L13.65 21.58C12.68 22.14 11.4799 22.14 10.4999 21.58L4.55994 18.15C3.58994 17.59 2.98993 16.55 2.98993 15.42V8.58003C2.98993 7.46003 3.58994 6.41999 4.55994 5.84999L10.4999 2.42C11.4699 1.86 12.67 1.86 13.65 2.42L19.59 5.84999C20.56 6.41999 21.16 7.45003 21.16 8.58003Z" fill="#FAF9F9"/>
<path d="M12.08 13.75C11.67 13.75 11.33 13.41 11.33 13V7.75C11.33 7.34 11.67 7 12.08 7C12.49 7 12.83 7.34 12.83 7.75V13C12.83 13.41 12.49 13.75 12.08 13.75Z" fill="#FAF9F9"/>
<path d="M12.08 17.25C11.95 17.25 11.82 17.22 11.7 17.17C11.57 17.12 11.4699 17.05 11.3699 16.96C11.2799 16.86 11.21 16.75 11.15 16.63C11.1 16.51 11.08 16.38 11.08 16.25C11.08 15.99 11.1799 15.73 11.3699 15.54C11.4699 15.45 11.57 15.38 11.7 15.33C12.07 15.17 12.51 15.26 12.79 15.54C12.88 15.64 12.9499 15.74 12.9999 15.87C13.0499 15.99 13.08 16.12 13.08 16.25C13.08 16.38 13.0499 16.51 12.9999 16.63C12.9499 16.75 12.88 16.86 12.79 16.96C12.6 17.15 12.35 17.25 12.08 17.25Z" fill="#FAF9F9"/>
</svg>
