<svg width="199" height="98" viewBox="0 0 199 98" fill="none" xmlns="http://www.w3.org/2000/svg">
<path d="M0 12C0 5.37258 5.37258 0 12 0H187C193.627 0 199 5.37258 199 12V86C199 92.6274 193.627 98 187 98H12C5.37258 98 0 92.6274 0 86V12Z" fill="#7E8EE7"/>
<path d="M114.188 34.2291C112.278 32.2998 110.003 30.7701 107.495 29.7292C104.988 28.6884 102.298 28.1572 99.5835 28.1666C88.2085 28.1666 78.9377 37.4375 78.9377 48.8125C78.9377 52.4583 79.896 56 81.6877 59.125L78.771 69.8333L89.7085 66.9583C92.7293 68.6041 96.1252 69.4791 99.5835 69.4791C110.958 69.4791 120.229 60.2083 120.229 48.8333C120.229 43.3125 118.083 38.125 114.188 34.2291ZM99.5835 65.9791C96.5002 65.9791 93.4793 65.1458 90.8335 63.5833L90.2085 63.2083L83.7085 64.9166L85.4377 58.5833L85.021 57.9375C83.308 55.202 82.3984 52.04 82.396 48.8125C82.396 39.3541 90.1043 31.6458 99.5627 31.6458C104.146 31.6458 108.458 33.4375 111.688 36.6875C113.287 38.2791 114.554 40.1722 115.416 42.2571C116.277 44.342 116.717 46.5773 116.708 48.8333C116.75 58.2916 109.042 65.9791 99.5835 65.9791ZM109 53.1458C108.479 52.8958 105.938 51.6458 105.479 51.4583C105 51.2916 104.667 51.2083 104.313 51.7083C103.958 52.2291 102.979 53.3958 102.688 53.7291C102.396 54.0833 102.083 54.125 101.563 53.8541C101.042 53.6041 99.3752 53.0416 97.4168 51.2916C95.8752 49.9166 94.8543 48.2291 94.5418 47.7083C94.2502 47.1875 94.5002 46.9166 94.771 46.6458C95.0002 46.4166 95.2918 46.0416 95.5418 45.75C95.7918 45.4583 95.896 45.2291 96.0627 44.8958C96.2293 44.5416 96.146 44.25 96.021 44C95.896 43.75 94.8543 41.2083 94.4377 40.1666C94.021 39.1666 93.5835 39.2916 93.271 39.2708H92.271C91.9168 39.2708 91.3752 39.3958 90.896 39.9166C90.4377 40.4375 89.1043 41.6875 89.1043 44.2291C89.1043 46.7708 90.9585 49.2291 91.2085 49.5625C91.4585 49.9166 94.8543 55.125 100.021 57.3541C101.25 57.8958 102.208 58.2083 102.958 58.4375C104.188 58.8333 105.313 58.7708 106.208 58.6458C107.208 58.5 109.271 57.3958 109.688 56.1875C110.125 54.9791 110.125 53.9583 109.979 53.7291C109.833 53.5 109.521 53.3958 109 53.1458Z" fill="#182881"/>
</svg>
