<svg width="24" height="24" viewBox="0 0 24 24" fill="none" xmlns="http://www.w3.org/2000/svg">
<g clip-path="url(#clip0_2414_9020)">
<g filter="url(#filter0_d_2414_9020)">
<g filter="url(#filter1_i_2414_9020)">
<path d="M6 5.4375C6 4.60907 6.67157 3.9375 7.5 3.9375H19.5C20.3284 3.9375 21 4.60907 21 5.4375V14.4375C21 15.2659 20.3284 15.9375 19.5 15.9375H7.5C6.67157 15.9375 6 15.2659 6 14.4375V5.4375Z" fill="url(#paint0_linear_2414_9020)"/>
</g>
<g filter="url(#filter2_ii_2414_9020)">
<path d="M5.25 7.6875C5.25 6.85907 5.92157 6.1875 6.75 6.1875H14.25C15.0784 6.1875 15.75 6.85907 15.75 7.6875V12.1875C15.75 13.0159 15.0784 13.6875 14.25 13.6875H6.75C5.92157 13.6875 5.25 13.0159 5.25 12.1875V7.6875Z" fill="white" fill-opacity="0.4"/>
</g>
<g filter="url(#filter3_ii_2414_9020)">
<path d="M4.125 9.1875C4.125 8.35907 4.79657 7.6875 5.625 7.6875H15.375C16.2034 7.6875 16.875 8.35907 16.875 9.1875V15.1875C16.875 16.0159 16.2034 16.6875 15.375 16.6875H5.625C4.79657 16.6875 4.125 16.0159 4.125 15.1875V9.1875Z" fill="white" fill-opacity="0.4"/>
</g>
<g filter="url(#filter4_ii_2414_9020)">
<path d="M6 9.9375C6 9.73039 5.83211 9.5625 5.625 9.5625H4.5C3.67157 9.5625 3 10.2341 3 11.0625V18.5625C3 19.3909 3.67157 20.0625 4.5 20.0625H16.5C17.3284 20.0625 18 19.3909 18 18.5625V11.0625C18 10.2341 17.3284 9.5625 16.5 9.5625H15.375C15.1679 9.5625 15 9.73039 15 9.9375V11.8125C15 12.2267 14.6642 12.5625 14.25 12.5625H6.75C6.33579 12.5625 6 12.2267 6 11.8125V9.9375Z" fill="white" fill-opacity="0.4"/>
</g>
</g>
</g>
<defs>
<filter id="filter0_d_2414_9020" x="1" y="0.9375" width="26" height="24.125" filterUnits="userSpaceOnUse" color-interpolation-filters="sRGB">
<feFlood flood-opacity="0" result="BackgroundImageFix"/>
<feColorMatrix in="SourceAlpha" type="matrix" values="0 0 0 0 0 0 0 0 0 0 0 0 0 0 0 0 0 0 127 0" result="hardAlpha"/>
<feOffset dx="2" dy="1"/>
<feGaussianBlur stdDeviation="2"/>
<feColorMatrix type="matrix" values="0 0 0 0 0.690196 0 0 0 0 0 0 0 0 0 0.12549 0 0 0 0.4 0"/>
<feBlend mode="normal" in2="BackgroundImageFix" result="effect1_dropShadow_2414_9020"/>
<feBlend mode="normal" in="SourceGraphic" in2="effect1_dropShadow_2414_9020" result="shape"/>
</filter>
<filter id="filter1_i_2414_9020" x="6" y="3.9375" width="15" height="12" filterUnits="userSpaceOnUse" color-interpolation-filters="sRGB">
<feFlood flood-opacity="0" result="BackgroundImageFix"/>
<feBlend mode="normal" in="SourceGraphic" in2="BackgroundImageFix" result="shape"/>
<feColorMatrix in="SourceAlpha" type="matrix" values="0 0 0 0 0 0 0 0 0 0 0 0 0 0 0 0 0 0 127 0" result="hardAlpha"/>
<feOffset/>
<feGaussianBlur stdDeviation="4"/>
<feComposite in2="hardAlpha" operator="arithmetic" k2="-1" k3="1"/>
<feColorMatrix type="matrix" values="0 0 0 0 1 0 0 0 0 1 0 0 0 0 1 0 0 0 0.8 0"/>
<feBlend mode="normal" in2="shape" result="effect1_innerShadow_2414_9020"/>
</filter>
<filter id="filter2_ii_2414_9020" x="5.25" y="6.1875" width="10.5" height="11.5" filterUnits="userSpaceOnUse" color-interpolation-filters="sRGB">
<feFlood flood-opacity="0" result="BackgroundImageFix"/>
<feBlend mode="normal" in="SourceGraphic" in2="BackgroundImageFix" result="shape"/>
<feColorMatrix in="SourceAlpha" type="matrix" values="0 0 0 0 0 0 0 0 0 0 0 0 0 0 0 0 0 0 127 0" result="hardAlpha"/>
<feOffset/>
<feGaussianBlur stdDeviation="2"/>
<feComposite in2="hardAlpha" operator="arithmetic" k2="-1" k3="1"/>
<feColorMatrix type="matrix" values="0 0 0 0 1 0 0 0 0 1 0 0 0 0 1 0 0 0 1 0"/>
<feBlend mode="normal" in2="shape" result="effect1_innerShadow_2414_9020"/>
<feColorMatrix in="SourceAlpha" type="matrix" values="0 0 0 0 0 0 0 0 0 0 0 0 0 0 0 0 0 0 127 0" result="hardAlpha"/>
<feOffset dy="4"/>
<feGaussianBlur stdDeviation="4"/>
<feComposite in2="hardAlpha" operator="arithmetic" k2="-1" k3="1"/>
<feColorMatrix type="matrix" values="0 0 0 0 1 0 0 0 0 1 0 0 0 0 1 0 0 0 1 0"/>
<feBlend mode="normal" in2="effect1_innerShadow_2414_9020" result="effect2_innerShadow_2414_9020"/>
</filter>
<filter id="filter3_ii_2414_9020" x="4.125" y="7.6875" width="12.75" height="13" filterUnits="userSpaceOnUse" color-interpolation-filters="sRGB">
<feFlood flood-opacity="0" result="BackgroundImageFix"/>
<feBlend mode="normal" in="SourceGraphic" in2="BackgroundImageFix" result="shape"/>
<feColorMatrix in="SourceAlpha" type="matrix" values="0 0 0 0 0 0 0 0 0 0 0 0 0 0 0 0 0 0 127 0" result="hardAlpha"/>
<feOffset/>
<feGaussianBlur stdDeviation="2"/>
<feComposite in2="hardAlpha" operator="arithmetic" k2="-1" k3="1"/>
<feColorMatrix type="matrix" values="0 0 0 0 1 0 0 0 0 1 0 0 0 0 1 0 0 0 1 0"/>
<feBlend mode="normal" in2="shape" result="effect1_innerShadow_2414_9020"/>
<feColorMatrix in="SourceAlpha" type="matrix" values="0 0 0 0 0 0 0 0 0 0 0 0 0 0 0 0 0 0 127 0" result="hardAlpha"/>
<feOffset dy="4"/>
<feGaussianBlur stdDeviation="4"/>
<feComposite in2="hardAlpha" operator="arithmetic" k2="-1" k3="1"/>
<feColorMatrix type="matrix" values="0 0 0 0 1 0 0 0 0 1 0 0 0 0 1 0 0 0 1 0"/>
<feBlend mode="normal" in2="effect1_innerShadow_2414_9020" result="effect2_innerShadow_2414_9020"/>
</filter>
<filter id="filter4_ii_2414_9020" x="3" y="9.5625" width="15" height="14.5" filterUnits="userSpaceOnUse" color-interpolation-filters="sRGB">
<feFlood flood-opacity="0" result="BackgroundImageFix"/>
<feBlend mode="normal" in="SourceGraphic" in2="BackgroundImageFix" result="shape"/>
<feColorMatrix in="SourceAlpha" type="matrix" values="0 0 0 0 0 0 0 0 0 0 0 0 0 0 0 0 0 0 127 0" result="hardAlpha"/>
<feOffset/>
<feGaussianBlur stdDeviation="2"/>
<feComposite in2="hardAlpha" operator="arithmetic" k2="-1" k3="1"/>
<feColorMatrix type="matrix" values="0 0 0 0 1 0 0 0 0 1 0 0 0 0 1 0 0 0 1 0"/>
<feBlend mode="normal" in2="shape" result="effect1_innerShadow_2414_9020"/>
<feColorMatrix in="SourceAlpha" type="matrix" values="0 0 0 0 0 0 0 0 0 0 0 0 0 0 0 0 0 0 127 0" result="hardAlpha"/>
<feOffset dy="4"/>
<feGaussianBlur stdDeviation="4"/>
<feComposite in2="hardAlpha" operator="arithmetic" k2="-1" k3="1"/>
<feColorMatrix type="matrix" values="0 0 0 0 1 0 0 0 0 1 0 0 0 0 1 0 0 0 1 0"/>
<feBlend mode="normal" in2="effect1_innerShadow_2414_9020" result="effect2_innerShadow_2414_9020"/>
</filter>
<linearGradient id="paint0_linear_2414_9020" x1="13.5" y1="3.9375" x2="13.5" y2="15.9375" gradientUnits="userSpaceOnUse">
<stop stop-color="#8F001A"/>
<stop offset="1" stop-color="#FF7B94"/>
</linearGradient>
<clipPath id="clip0_2414_9020">
<rect width="24" height="24" fill="white"/>
</clipPath>
</defs>
</svg>
