<svg width="21" height="20" viewBox="0 0 21 20" fill="none" xmlns="http://www.w3.org/2000/svg">
<g clip-path="url(#clip0_2722_7316)">
<path d="M10.7615 15.4875C8.36772 15.4187 6.39897 14.575 5.13022 12.4687C4.42397 11.3 4.23022 10.0062 4.40522 8.68122C4.67397 6.61872 6.85522 5.52497 8.75522 6.44372C9.18647 6.65622 9.62397 6.88122 10.0927 6.99997C10.9865 7.23122 11.8302 7.03122 12.6177 6.56247C13.3365 6.14372 14.1052 6.01247 14.9177 6.19372C16.249 6.48747 17.1365 7.59372 17.2302 8.93747C17.5052 13.05 14.3177 15.5375 10.7615 15.475V15.4875ZM10.8177 12.6687C11.3865 12.6687 11.874 12.4687 12.2677 12.0625C12.5802 11.7437 12.6052 11.3187 12.3365 11.0187C12.0677 10.7187 11.624 10.6812 11.2865 10.9687C10.949 11.2562 10.6615 11.2562 10.324 10.9687C9.98022 10.6812 9.54897 10.7312 9.27397 11.0437C9.01147 11.35 9.02397 11.7375 9.33022 12.0562C9.73647 12.4687 10.2302 12.675 10.8177 12.6687ZM8.78022 9.29997C8.78022 9.08747 8.79272 8.86872 8.78022 8.66247C8.74897 8.26872 8.44897 7.99372 8.06772 7.98122C7.66772 7.96872 7.33022 8.25622 7.31147 8.66247C7.28647 9.07497 7.28647 9.49372 7.31147 9.90622C7.33647 10.2875 7.67397 10.5687 8.04272 10.575C8.41772 10.575 8.74272 10.2937 8.78022 9.91247C8.79897 9.71247 8.78022 9.51247 8.78022 9.31247V9.29997ZM12.8177 9.22497C12.8177 9.44997 12.799 9.68122 12.8177 9.90622C12.849 10.2687 13.1615 10.55 13.5177 10.5687C13.8865 10.5875 14.2552 10.3125 14.2802 9.93747C14.3115 9.49997 14.3115 9.05622 14.2802 8.61872C14.2552 8.23747 13.9052 7.97497 13.524 7.98122C13.1427 7.99372 12.8427 8.27497 12.8115 8.66872C12.799 8.85622 12.8115 9.04372 12.8115 9.23122L12.8177 9.22497Z" fill="#F8F9FA"/>
<path d="M19.6368 12.8625C19.4305 12.9125 19.2805 12.95 19.1555 12.9813C19.1555 12.0563 19.1368 11.1375 19.1555 10.225C19.193 8.95628 19.0055 7.71878 18.4868 6.55628C17.393 4.11878 15.6868 2.25628 13.043 1.46878C9.92426 0.537533 7.21801 1.41253 5.00551 3.69378C3.31801 5.43128 2.40551 7.53128 2.44301 9.98128C2.45551 10.975 2.44301 11.975 2.44301 12.9625C1.66176 12.8375 0.968007 12.2063 0.868007 11.3438C0.724257 10.125 0.730507 8.88753 1.01801 7.68753C1.09926 7.35628 1.31176 7.01253 1.56176 6.77503C1.85551 6.50003 2.04301 6.20003 2.21176 5.84378C3.56801 3.00003 5.67426 0.975033 8.83051 0.250033C12.243 -0.531217 15.1118 0.556283 17.493 3.00628C18.393 3.93128 19.0555 5.01253 19.543 6.20003C19.5868 6.30628 19.6368 6.43753 19.7243 6.49378C20.4743 7.00003 20.693 7.76253 20.7368 8.58128C20.7805 9.43128 20.7993 10.2938 20.7368 11.1375C20.7118 11.5125 20.4743 11.875 20.3305 12.2438C20.2555 12.4438 20.1305 12.65 20.1243 12.85C20.1055 13.9438 20.1243 15.0375 20.1118 16.1313C20.0993 18.0125 18.743 19.35 16.8305 19.3563C15.618 19.3563 14.3993 19.3563 13.193 19.3563C13.018 19.9438 12.9555 19.9875 12.3368 19.9875C11.268 19.9875 10.1993 19.9875 9.13051 19.9875C8.61176 19.9875 8.46176 19.8313 8.45551 19.3188C8.45551 19.1875 8.45551 19.05 8.45551 18.9188C8.45551 18.375 8.60551 18.225 9.14926 18.2188C10.218 18.2188 11.2868 18.2188 12.3555 18.2188C12.9618 18.2188 13.0243 18.2688 13.1868 18.875C14.5305 18.875 15.8868 18.925 17.2305 18.8625C18.493 18.8063 19.568 17.7375 19.6243 16.4938C19.6805 15.2938 19.6368 14.0938 19.6368 12.85V12.8625Z" fill="#F8F9FA"/>
<path d="M11.7864 4.4C11.7864 4.95 11.3302 5.38125 10.7677 5.36875C10.2302 5.35625 9.80518 4.91875 9.80518 4.38125C9.80518 3.83125 10.2614 3.4 10.8239 3.4125C11.3677 3.425 11.7864 3.8625 11.7864 4.39375V4.4Z" fill="#F8F9FA"/>
<path opacity="0.4" d="M10.8176 12.6687C10.2301 12.675 9.73633 12.4687 9.33008 12.0562C9.02383 11.7437 9.01133 11.35 9.27383 11.0437C9.54258 10.7312 9.98008 10.6812 10.3238 10.9687C10.6613 11.2562 10.9488 11.2562 11.2863 10.9687C11.6238 10.6812 12.0738 10.7187 12.3363 11.0187C12.6051 11.3187 12.5801 11.7437 12.2676 12.0625C11.8738 12.4625 11.3863 12.6687 10.8176 12.6687Z" fill="#F8F9FA"/>
<path opacity="0.4" d="M8.78047 9.30621C8.78047 9.50621 8.79922 9.70621 8.78047 9.90621C8.74297 10.2875 8.41797 10.5687 8.04297 10.5687C7.66797 10.5687 7.33047 10.2812 7.31172 9.89996C7.28672 9.48746 7.28672 9.06871 7.31172 8.65621C7.33047 8.24996 7.67422 7.96871 8.06797 7.97496C8.44922 7.98121 8.75547 8.26246 8.78047 8.65621C8.79922 8.86871 8.78047 9.08121 8.78047 9.29371V9.30621Z" fill="#F8F9FA"/>
<path opacity="0.4" d="M12.8176 9.23125C12.8176 9.04375 12.8051 8.85625 12.8176 8.66875C12.8488 8.275 13.1488 7.99375 13.5301 7.98125C13.9113 7.96875 14.2613 8.2375 14.2863 8.61875C14.3176 9.05625 14.3176 9.5 14.2863 9.9375C14.2613 10.3125 13.8926 10.5875 13.5238 10.5688C13.1676 10.55 12.8551 10.275 12.8238 9.90625C12.8051 9.68125 12.8238 9.45 12.8238 9.225L12.8176 9.23125Z" fill="#F8F9FA"/>
</g>
<defs>
<clipPath id="clip0_2722_7316">
<rect width="20" height="20" fill="white" transform="translate(0.780273)"/>
</clipPath>
</defs>
</svg>
