<svg width="18" height="18" viewBox="0 0 18 18" fill="none" xmlns="http://www.w3.org/2000/svg">
<path d="M0.585786 0.585803C0.210714 0.960876 0 1.46958 0 2.00002V16C0 16.5305 0.210714 17.0392 0.585786 17.4142C0.960859 17.7893 1.46957 18 2 18H16C16.5304 18 17.0391 17.7893 17.4142 17.4142C17.7893 17.0392 18 16.5305 18 16V5.00002L0.585786 0.585803ZM0.585786 0.585803C0.960859 0.21073 1.46957 1.67143e-05 2 1.67143e-05H13C13.1316 -0.000744179 13.2621 0.0244809 13.3839 0.0742455C13.5057 0.12401 13.6166 0.197335 13.71 0.290017L0.585786 0.585803ZM17.1667 4.9952H17.1667V5.00002V16C17.1667 16.3055 17.0469 16.5986 16.8333 16.8165V16V5.41002V5.06484L16.5893 4.82076L13.1793 1.41076L12.9352 1.16668H12.59H12H11.1667V2.00002V5.16668H4.83333V2.00002V1.16668H4H2H1.1835C1.40145 0.953132 1.69455 0.83335 2 0.83335L13 0.833364L13.0048 0.833336C13.0268 0.833209 13.0485 0.837414 13.0688 0.845708C13.0888 0.853884 13.1071 0.865879 13.1225 0.88102C13.1227 0.881236 13.1229 0.881452 13.1232 0.881669L17.1183 4.87687C17.1186 4.87709 17.1188 4.87731 17.119 4.87753C17.1341 4.89297 17.1461 4.9112 17.1543 4.93121C17.1626 4.95152 17.1668 4.97326 17.1667 4.9952ZM16 16.8334H16.8165C16.5985 17.0469 16.3054 17.1667 16 17.1667H2C1.69455 17.1667 1.40145 17.0469 1.1835 16.8334H2H4H4.83333V16V11C4.83333 10.6946 4.95312 10.4015 5.16667 10.1835V11V16V16.8334H6H12H12.8333V16V11V10.1835C13.0469 10.4015 13.1667 10.6946 13.1667 11V16V16.8334H14H16ZM1.16667 16V16.8165C0.953115 16.5986 0.833333 16.3055 0.833333 16V2.00002C0.833333 1.69457 0.953115 1.40147 1.16667 1.18352V2.00002V16ZM6 10.1667H5.1835C5.40145 9.95313 5.69455 9.83335 6 9.83335H12C12.3054 9.83335 12.5985 9.95313 12.8165 10.1667H12H6ZM10 4.83335H10.8333V4.00002V2.00002V1.16668H10H8H7.16667V2.00002V4.00002V4.83335H8H10Z" fill="white" stroke="#F8F9FA" stroke-width="1.66667"/>
</svg>
