<svg width="16" height="17" viewBox="0 0 16 17" fill="none" xmlns="http://www.w3.org/2000/svg">
<path d="M10.6673 9.10004V11.9C10.6673 14.2334 9.73398 15.1667 7.40065 15.1667H4.60065C2.26732 15.1667 1.33398 14.2334 1.33398 11.9V9.10004C1.33398 6.76671 2.26732 5.83337 4.60065 5.83337H7.40065C9.73398 5.83337 10.6673 6.76671 10.6673 9.10004Z" fill="#FAF9F9"/>
<path opacity="0.4" d="M11.3998 1.83337H8.59984C6.29984 1.83337 5.36651 2.74671 5.33984 5.00004H7.39984C10.1998 5.00004 11.4998 6.30004 11.4998 9.10004V11.16C13.7532 11.1334 14.6665 10.2 14.6665 7.90004V5.10004C14.6665 2.76671 13.7332 1.83337 11.3998 1.83337Z" fill="white"/>
</svg>
