<svg width="21" height="20" viewBox="0 0 21 20" fill="none" xmlns="http://www.w3.org/2000/svg">
<path d="M18.3387 4.35829C16.997 4.22496 15.6553 4.12496 14.3053 4.04996V4.04163L14.122 2.95829C13.997 2.19163 13.8137 1.04163 11.8637 1.04163H9.68032C7.73866 1.04163 7.55532 2.14163 7.42199 2.94996L7.24699 4.01663C6.47199 4.06663 5.69699 4.11663 4.92199 4.19163L3.22199 4.35829C2.87199 4.39163 2.62199 4.69996 2.65532 5.04163C2.68866 5.38329 2.98866 5.63329 3.33866 5.59996L5.03866 5.43329C9.40532 4.99996 13.8053 5.16663 18.222 5.60829C18.247 5.60829 18.2637 5.60829 18.2887 5.60829C18.6053 5.60829 18.8803 5.36663 18.9137 5.04163C18.9387 4.69996 18.6887 4.39163 18.3387 4.35829Z" fill="#FAF9F9"/>
<path opacity="0.3991" d="M16.8057 6.78337C16.6057 6.57504 16.3307 6.45837 16.0474 6.45837H5.51405C5.23072 6.45837 4.94738 6.57504 4.75572 6.78337C4.56405 6.99171 4.45572 7.27504 4.47238 7.56671L4.98905 16.1167C5.08072 17.3834 5.19738 18.9667 8.10572 18.9667H13.4557C16.364 18.9667 16.4807 17.3917 16.5724 16.1167L17.089 7.57504C17.1057 7.27504 16.9974 6.99171 16.8057 6.78337Z" fill="#FAF9F9"/>
<path fill-rule="evenodd" clip-rule="evenodd" d="M8.76367 14.1666C8.76367 13.8214 9.04349 13.5416 9.38867 13.5416H12.1637C12.5089 13.5416 12.7887 13.8214 12.7887 14.1666C12.7887 14.5118 12.5089 14.7916 12.1637 14.7916H9.38867C9.04349 14.7916 8.76367 14.5118 8.76367 14.1666Z" fill="#FAF9F9"/>
<path fill-rule="evenodd" clip-rule="evenodd" d="M8.07227 10.8334C8.07227 10.4882 8.35209 10.2084 8.69727 10.2084H12.8639C13.2091 10.2084 13.4889 10.4882 13.4889 10.8334C13.4889 11.1786 13.2091 11.4584 12.8639 11.4584H8.69727C8.35209 11.4584 8.07227 11.1786 8.07227 10.8334Z" fill="#FAF9F9"/>
</svg>
