<svg width="32" height="32" viewBox="0 0 32 32" fill="none" xmlns="http://www.w3.org/2000/svg">
<path opacity="0.4" d="M27.334 13.5866H23.4806C20.3207 13.5866 17.7473 11.0133 17.7473 7.85329V3.99996C17.7473 3.26663 17.1473 2.66663 16.414 2.66663H10.7607C6.65398 2.66663 3.33398 5.33329 3.33398 10.0933V21.9066C3.33398 26.6666 6.65398 29.3333 10.7607 29.3333H21.2407C25.3473 29.3333 28.6673 26.6666 28.6673 21.9066V14.92C28.6673 14.1866 28.0673 13.5866 27.334 13.5866Z" fill="#FAF9F9"/>
<path d="M21.0676 2.9467C20.5209 2.40003 19.5742 2.77336 19.5742 3.53336V8.1867C19.5742 10.1334 21.2276 11.7467 23.2409 11.7467C24.5076 11.76 26.2676 11.76 27.7742 11.76C28.5342 11.76 28.9342 10.8667 28.4009 10.3334C26.4809 8.40003 23.0409 4.92003 21.0676 2.9467Z" fill="#FAF9F9"/>
<path d="M15.3726 16.6266L12.7059 13.96C12.6926 13.9466 12.6793 13.9466 12.6793 13.9333C12.5993 13.8533 12.4926 13.7866 12.3859 13.7333C12.3726 13.7333 12.3726 13.7333 12.3593 13.7333C12.2526 13.6933 12.1459 13.68 12.0393 13.6666C11.9993 13.6666 11.9726 13.6666 11.9326 13.6666C11.8526 13.6666 11.7593 13.6933 11.6793 13.72C11.6393 13.7333 11.6126 13.7466 11.5859 13.76C11.4793 13.8133 11.3726 13.8666 11.2926 13.96L8.62594 16.6266C8.23927 17.0133 8.23927 17.6533 8.62594 18.04C9.0126 18.4266 9.6526 18.4266 10.0393 18.04L10.9993 17.08V22.6666C10.9993 23.2133 11.4526 23.6666 11.9993 23.6666C12.5459 23.6666 12.9993 23.2133 12.9993 22.6666V17.08L13.9593 18.04C14.1593 18.24 14.4126 18.3333 14.6659 18.3333C14.9193 18.3333 15.1726 18.24 15.3726 18.04C15.7593 17.6533 15.7593 17.0133 15.3726 16.6266Z" fill="#FAF9F9"/>
</svg>
