<svg width="16" height="17" viewBox="0 0 16 17" fill="none" xmlns="http://www.w3.org/2000/svg">
<path opacity="0.4" d="M10.3207 2.5H5.01398C2.71398 2.5 1.33398 3.87333 1.33398 6.18V11.48C1.33398 13.7933 2.71398 15.1667 5.01398 15.1667H10.314C12.6207 15.1667 13.994 13.7933 13.994 11.4867V6.18C14.0007 3.87333 12.6207 2.5 10.3207 2.5Z" fill="white"/>
<path d="M14.013 2.48669C12.8197 1.28669 11.653 1.26002 10.4263 2.48669L9.67299 3.23335C9.60632 3.30002 9.58632 3.39335 9.61299 3.48002C10.0797 5.11335 11.3863 6.42002 13.0197 6.88669C13.0397 6.89335 13.073 6.89335 13.093 6.89335C13.1597 6.89335 13.2263 6.86669 13.273 6.82002L14.013 6.07335C14.6197 5.46669 14.9197 4.88669 14.9197 4.29335C14.9197 3.69335 14.6197 3.10002 14.013 2.48669Z" fill="white"/>
<path d="M11.9061 7.44666C11.7261 7.36 11.5527 7.27333 11.3927 7.17333C11.2594 7.09333 11.1261 7.00666 10.9994 6.91333C10.8927 6.84666 10.7727 6.74666 10.6527 6.64666C10.6394 6.64 10.5994 6.60666 10.5461 6.55333C10.3394 6.38666 10.1194 6.16 9.91275 5.91333C9.89942 5.9 9.85942 5.86 9.82608 5.8C9.75942 5.72666 9.65942 5.6 9.57275 5.46C9.49942 5.36666 9.41275 5.23333 9.33275 5.09333C9.23275 4.92666 9.14608 4.76 9.06608 4.58666C8.97942 4.4 8.91275 4.22666 8.85275 4.06L5.26608 7.64666C5.03275 7.88 4.80608 8.32 4.75942 8.64666L4.47275 10.6333C4.41275 11.0533 4.52608 11.4467 4.78608 11.7067C5.00608 11.9267 5.30608 12.04 5.63942 12.04C5.71275 12.04 5.78608 12.0333 5.85942 12.0267L7.83942 11.7467C8.16608 11.7 8.60608 11.48 8.83942 11.24L12.4261 7.65333C12.2594 7.6 12.0927 7.52666 11.9061 7.44666Z" fill="white"/>
</svg>
