<svg width="21" height="20" viewBox="0 0 21 20" fill="none" xmlns="http://www.w3.org/2000/svg">
<path opacity="0.4" d="M13.6806 2.5H7.04727C4.17227 2.5 2.44727 4.21667 2.44727 7.1V13.725C2.44727 16.6167 4.17227 18.3333 7.04727 18.3333H13.6723C16.5556 18.3333 18.2723 16.6167 18.2723 13.7333V7.1C18.2806 4.21667 16.5556 2.5 13.6806 2.5Z" fill="#FAF9F9"/>
<path d="M18.2965 2.48336C16.8048 0.98336 15.3465 0.950026 13.8132 2.48336L12.8715 3.41669C12.7882 3.50003 12.7632 3.61669 12.7965 3.72503C13.3798 5.76669 15.0132 7.40003 17.0548 7.98336C17.0798 7.99169 17.1215 7.99169 17.1465 7.99169C17.2298 7.99169 17.3132 7.95836 17.3715 7.90003L18.2965 6.96669C19.0548 6.20836 19.4298 5.48336 19.4298 4.74169C19.4298 3.99169 19.0548 3.25003 18.2965 2.48336Z" fill="#FAF9F9"/>
<path d="M15.6639 8.68328C15.4389 8.57495 15.2222 8.46662 15.0222 8.34162C14.8555 8.24162 14.6889 8.13328 14.5305 8.01662C14.3972 7.93328 14.2472 7.80828 14.0972 7.68328C14.0805 7.67495 14.0305 7.63328 13.9639 7.56662C13.7055 7.35828 13.4305 7.07495 13.1722 6.76662C13.1555 6.74995 13.1055 6.69995 13.0639 6.62495C12.9805 6.53328 12.8555 6.37495 12.7472 6.19995C12.6555 6.08328 12.5472 5.91662 12.4472 5.74162C12.3222 5.53328 12.2139 5.32495 12.1139 5.10828C12.0055 4.87495 11.9222 4.65828 11.8472 4.44995L7.36385 8.93328C7.07219 9.22495 6.78885 9.77495 6.73052 10.1833L6.37219 12.6666C6.29719 13.1916 6.43885 13.6833 6.76385 14.0083C7.03885 14.2833 7.41385 14.4249 7.83052 14.4249C7.92219 14.4249 8.01385 14.4166 8.10552 14.4083L10.5805 14.0583C10.9889 14 11.5389 13.725 11.8305 13.425L16.3139 8.94162C16.1055 8.87495 15.8972 8.78328 15.6639 8.68328Z" fill="#FAF9F9"/>
</svg>
