<svg width="32" height="32" viewBox="0 0 32 32" fill="none" xmlns="http://www.w3.org/2000/svg">
<path opacity="0.4" d="M21.586 2.66663H10.4127C5.55935 2.66663 2.66602 5.55996 2.66602 10.4133V21.5733C2.66602 26.44 5.55935 29.3333 10.4127 29.3333H21.5727C26.426 29.3333 29.3193 26.44 29.3193 21.5866V10.4133C29.3327 5.55996 26.4394 2.66663 21.586 2.66663Z" fill="#FAF9F9"/>
<path d="M20.6668 13.5066C22.0512 13.5066 23.1735 12.3843 23.1735 11C23.1735 9.61556 22.0512 8.49329 20.6668 8.49329C19.2824 8.49329 18.1602 9.61556 18.1602 11C18.1602 12.3843 19.2824 13.5066 20.6668 13.5066Z" fill="#FAF9F9"/>
<path d="M11.3328 13.5066C12.7172 13.5066 13.8395 12.3843 13.8395 11C13.8395 9.61556 12.7172 8.49329 11.3328 8.49329C9.94844 8.49329 8.82617 9.61556 8.82617 11C8.82617 12.3843 9.94844 13.5066 11.3328 13.5066Z" fill="#FAF9F9"/>
<path d="M20.7992 17.2267H11.1992C10.2659 17.2267 9.50586 17.9867 9.50586 18.9334C9.50586 22.52 12.4259 25.44 16.0125 25.44C19.5992 25.44 22.5192 22.52 22.5192 18.9334C22.5059 18 21.7325 17.2267 20.7992 17.2267Z" fill="#FAF9F9"/>
</svg>
