<svg width="101" height="100" viewBox="0 0 101 100" fill="none" xmlns="http://www.w3.org/2000/svg">
<path opacity="0.4" d="M92.1667 26.0417V47.2916C92.1667 52.5833 90.4167 57.0417 87.2917 60.125C84.2084 63.25 79.75 64.9999 74.4584 64.9999V72.5416C74.4584 75.3749 71.2917 77.0834 68.9583 75.5L64.9167 72.8333C65.2917 71.5416 65.4584 70.1249 65.4584 68.6249V51.6668C65.4584 43.1668 59.7917 37.5 51.2917 37.5H23C22.4167 37.5 21.875 37.5418 21.3334 37.5835V26.0417C21.3334 15.4167 28.4167 8.33337 39.0417 8.33337H74.4584C85.0834 8.33337 92.1667 15.4167 92.1667 26.0417Z" fill="#FAF9F9"/>
<path d="M65.4584 51.6668V68.6249C65.4584 70.1249 65.2917 71.5416 64.9167 72.8333C63.3751 78.9583 58.2917 82.7916 51.2917 82.7916H39.9584L27.375 91.1667C25.5 92.4584 23 91.0834 23 88.8334V82.7916C18.75 82.7916 15.2084 81.375 12.7501 78.9167C10.2501 76.4167 8.83337 72.8749 8.83337 68.6249V51.6668C8.83337 43.7501 13.75 38.2917 21.3334 37.5834C21.875 37.5417 22.4167 37.5 23 37.5H51.2917C59.7917 37.5 65.4584 43.1668 65.4584 51.6668Z" fill="#FAF9F9"/>
</svg>
