<svg width="21" height="20" viewBox="0 0 21 20" fill="none" xmlns="http://www.w3.org/2000/svg">
<path opacity="0.4" d="M18.2082 7.625C16.2832 4.6 13.4665 2.85834 10.4998 2.85834C9.0165 2.85834 7.57484 3.29167 6.25817 4.1C4.9415 4.91667 3.75817 6.10834 2.7915 7.625C1.95817 8.93334 1.95817 11.0583 2.7915 12.3667C4.7165 15.4 7.53317 17.1333 10.4998 17.1333C11.9832 17.1333 13.4248 16.7 14.7415 15.8917C16.0582 15.075 17.2415 13.8833 18.2082 12.3667C19.0415 11.0667 19.0415 8.93334 18.2082 7.625ZM10.4998 13.3667C8.63317 13.3667 7.13317 11.8583 7.13317 10C7.13317 8.14167 8.63317 6.63334 10.4998 6.63334C12.3665 6.63334 13.8665 8.14167 13.8665 10C13.8665 11.8583 12.3665 13.3667 10.4998 13.3667Z" fill="#FAF9F9"/>
<path d="M10.5 7.61664C9.19167 7.61664 8.125 8.6833 8.125 9.99997C8.125 11.3083 9.19167 12.375 10.5 12.375C11.8083 12.375 12.8833 11.3083 12.8833 9.99997C12.8833 8.69164 11.8083 7.61664 10.5 7.61664Z" fill="#FAF9F9"/>
</svg>
