<svg width="32" height="32" viewBox="0 0 32 32" fill="none" xmlns="http://www.w3.org/2000/svg">
<path d="M29.3341 18.5334V21.5867C29.3341 26.44 26.4407 29.3334 21.5874 29.3334H10.4141C7.01406 29.3334 4.56073 27.9067 3.41406 25.3734L3.56073 25.2667L10.1207 20.8667C11.1874 20.1467 12.6941 20.2267 13.6407 21.0534L14.0941 21.4267C15.1341 22.32 16.8141 22.32 17.8541 21.4267L23.4007 16.6667C24.4407 15.7734 26.1207 15.7734 27.1607 16.6667L29.3341 18.5334Z" fill="#FAF9F9"/>
<path opacity="0.4" d="M27.9593 10.6666H24.0394C22.346 10.6666 21.3327 9.65329 21.3327 7.95996V4.03996C21.3327 3.50663 21.4393 3.05329 21.626 2.66663C21.6127 2.66663 21.5993 2.66663 21.586 2.66663H10.4127C5.55935 2.66663 2.66602 5.55996 2.66602 10.4133V21.5866C2.66602 23.04 2.91935 24.3066 3.41268 25.3733L3.55935 25.2666L10.1193 20.8666C11.186 20.1466 12.6927 20.2266 13.6393 21.0533L14.0927 21.4266C15.1327 22.32 16.8127 22.32 17.8527 21.4266L23.3993 16.6666C24.4393 15.7733 26.1194 15.7733 27.1594 16.6666L29.3327 18.5333V10.4133C29.3327 10.4 29.3327 10.3866 29.3327 10.3733C28.946 10.56 28.4927 10.6666 27.9593 10.6666Z" fill="#FAF9F9"/>
<path d="M11.9995 13.84C13.7521 13.84 15.1728 12.4192 15.1728 10.6666C15.1728 8.91404 13.7521 7.49329 11.9995 7.49329C10.2469 7.49329 8.82617 8.91404 8.82617 10.6666C8.82617 12.4192 10.2469 13.84 11.9995 13.84Z" fill="#FAF9F9"/>
<path d="M27.9606 10.6667H24.0407C22.3473 10.6667 21.334 9.65337 21.334 7.96004V4.04004C21.334 2.34671 22.3473 1.33337 24.0407 1.33337H27.9606C29.654 1.33337 30.6673 2.34671 30.6673 4.04004V7.96004C30.6673 9.65337 29.654 10.6667 27.9606 10.6667ZM28.254 6.25337C28.094 6.09337 27.8807 6.01337 27.6673 6.01337C27.454 6.01337 27.2406 6.09337 27.0806 6.25337L26.8406 6.49337V3.50671C26.8406 3.04004 26.4673 2.66671 26.0007 2.66671C25.534 2.66671 25.1607 3.04004 25.1607 3.50671V6.49337L24.9207 6.25337C24.6007 5.93337 24.0673 5.93337 23.7473 6.25337C23.4273 6.57337 23.4273 7.10671 23.7473 7.42671L25.414 9.09337C25.4806 9.16004 25.574 9.21337 25.6673 9.25337C25.694 9.26671 25.7206 9.26671 25.7473 9.28004C25.814 9.30671 25.8806 9.32004 25.9606 9.32004C25.9873 9.32004 26.014 9.32004 26.0407 9.32004C26.134 9.32004 26.214 9.30671 26.3073 9.26671C26.3206 9.26671 26.3207 9.26671 26.334 9.26671C26.4273 9.22671 26.5073 9.17337 26.574 9.10671C26.5873 9.09337 26.5873 9.09337 26.6007 9.09337L28.2673 7.42671C28.5873 7.10671 28.5873 6.57337 28.254 6.25337Z" fill="#FAF9F9"/>
</svg>
