<svg width="16" height="17" viewBox="0 0 16 17" fill="none" xmlns="http://www.w3.org/2000/svg">
<path d="M3.50065 6.16671C4.69727 6.16671 5.66732 5.19666 5.66732 4.00004C5.66732 2.80342 4.69727 1.83337 3.50065 1.83337C2.30403 1.83337 1.33398 2.80342 1.33398 4.00004C1.33398 5.19666 2.30403 6.16671 3.50065 6.16671Z" fill="white"/>
<path d="M3.33398 15.1666C4.43855 15.1666 5.33398 14.2712 5.33398 13.1666C5.33398 12.0621 4.43855 11.1666 3.33398 11.1666C2.22941 11.1666 1.33398 12.0621 1.33398 13.1666C1.33398 14.2712 2.22941 15.1666 3.33398 15.1666Z" fill="white"/>
<path d="M12.666 15.1666C13.7706 15.1666 14.666 14.2712 14.666 13.1666C14.666 12.0621 13.7706 11.1666 12.666 11.1666C11.5614 11.1666 10.666 12.0621 10.666 13.1666C10.666 14.2712 11.5614 15.1666 12.666 15.1666Z" fill="white"/>
<path opacity="0.4" d="M12.7807 11.1534C12.134 9.30003 10.3873 8.05337 8.42065 8.05337C8.41398 8.05337 8.40732 8.05337 8.40065 8.05337L6.04732 8.06003C5.03398 8.07336 4.12732 7.3867 3.85398 6.40003V5.1667C3.85398 4.8867 3.62732 4.66003 3.34065 4.66003C3.05398 4.66003 2.83398 4.8867 2.83398 5.1667V12.6467C2.83398 12.9267 3.06065 13.1534 3.34065 13.1534C3.62065 13.1534 3.85398 12.9267 3.85398 12.6467V8.23337C4.44065 8.75337 5.20732 9.07336 6.04065 9.07336C6.04732 9.07336 6.04732 9.07336 6.05398 9.07336L8.40732 9.0667C8.41398 9.0667 8.41398 9.0667 8.42065 9.0667C9.94732 9.0667 11.314 10.0334 11.814 11.48C11.8873 11.6934 12.0873 11.82 12.294 11.82C12.3473 11.82 12.4073 11.8134 12.4607 11.7934C12.734 11.7134 12.874 11.42 12.7807 11.1534Z" fill="white"/>
</svg>
