<svg width="25" height="24" viewBox="0 0 25 24" fill="none" xmlns="http://www.w3.org/2000/svg">
<path opacity="0.4" d="M17.2805 9C17.2805 12.87 13.9205 16 9.78052 16L8.85052 17.12L8.30052 17.78C7.83052 18.34 6.93051 18.22 6.62051 17.55L5.28052 14.6C3.46052 13.32 2.28052 11.29 2.28052 9C2.28052 5.13 5.64052 2 9.78052 2C12.8005 2 15.4105 3.67001 16.5805 6.07001C17.0305 6.96001 17.2805 7.95 17.2805 9Z" fill="#FAF9F9"/>
<path d="M22.2806 12.86C22.2806 15.15 21.1006 17.1801 19.2806 18.4601L17.9406 21.41C17.6306 22.08 16.7306 22.2101 16.2606 21.6401L14.7806 19.86C12.3606 19.86 10.2006 18.7901 8.85059 17.1201L9.78058 16.0001C13.9206 16.0001 17.2806 12.8701 17.2806 9.00006C17.2806 7.95006 17.0306 6.96007 16.5806 6.07007C19.8506 6.82007 22.2806 9.58005 22.2806 12.86Z" fill="#FAF9F9"/>
<path d="M12.2805 9.75H7.28052C6.87052 9.75 6.53052 9.41 6.53052 9C6.53052 8.59 6.87052 8.25 7.28052 8.25H12.2805C12.6905 8.25 13.0305 8.59 13.0305 9C13.0305 9.41 12.6905 9.75 12.2805 9.75Z" fill="#FAF9F9"/>
</svg>
