<svg width="20" height="20" viewBox="0 0 20 20" fill="none" xmlns="http://www.w3.org/2000/svg">
<path d="M8.33301 15.8333C8.33301 16.75 9.08301 17.5 9.99967 17.5C10.9163 17.5 11.6663 16.75 11.6663 15.8333C11.6663 14.9167 10.9163 14.1667 9.99967 14.1667C9.08301 14.1667 8.33301 14.9167 8.33301 15.8333Z" stroke="#FAF9F9" stroke-width="1.5"/>
<path d="M8.33301 4.16671C8.33301 5.08337 9.08301 5.83337 9.99967 5.83337C10.9163 5.83337 11.6663 5.08337 11.6663 4.16671C11.6663 3.25004 10.9163 2.50004 9.99967 2.50004C9.08301 2.50004 8.33301 3.25004 8.33301 4.16671Z" stroke="#FAF9F9" stroke-width="1.5"/>
<path d="M9.99967 11.6666C10.9163 11.6666 11.6663 10.9166 11.6663 9.99996C11.6663 9.08329 10.9163 8.33329 9.99967 8.33329C9.08301 8.33329 8.33301 9.08329 8.33301 9.99996" stroke="#FAF9F9" stroke-width="1.5" stroke-linecap="round" stroke-linejoin="round"/>
</svg>
