<svg width="32" height="32" viewBox="0 0 32 32" fill="none" xmlns="http://www.w3.org/2000/svg">
<path opacity="0.4" d="M21.5863 2.66663H10.4264C5.57302 2.66663 2.67969 5.55996 2.67969 10.4133V21.5733C2.67969 26.4266 5.57302 29.3199 10.4264 29.3199H21.5863C26.4397 29.3199 29.333 26.4266 29.333 21.5733V10.4133C29.333 5.55996 26.4397 2.66663 21.5863 2.66663Z" fill="#FAF9F9"/>
<path d="M21.521 8.94666C21.0677 8.59999 20.2676 8.26666 18.9876 8.61332L15.001 9.70666C13.761 10.04 12.9477 11.0933 12.9477 12.3866V14.7199V17.4266C12.6677 17.3466 12.3876 17.2933 12.081 17.2933C10.361 17.2933 8.96094 18.6933 8.96094 20.4133C8.96094 22.1333 10.361 23.5333 12.081 23.5333C13.7876 23.5333 15.1743 22.1467 15.201 20.4533C15.201 20.44 15.2143 20.4266 15.2143 20.4133V15.5866L20.2543 14.2133V16.1066C19.9743 16.0266 19.6943 15.9733 19.3876 15.9733C17.6676 15.9733 16.2677 17.3733 16.2677 19.0933C16.2677 20.8133 17.6676 22.2133 19.3876 22.2133C21.1076 22.2133 22.5077 20.8133 22.5077 19.0933V12.7466V11.3199C22.5077 9.98661 21.961 9.29332 21.521 8.94666ZM12.081 21.28C11.601 21.28 11.2143 20.8933 11.2143 20.4133C11.2143 19.9333 11.601 19.5466 12.081 19.5466C12.561 19.5466 12.9477 19.9333 12.9477 20.4133C12.9477 20.8933 12.561 21.28 12.081 21.28ZM19.3876 19.9467C18.9076 19.9467 18.521 19.56 18.521 19.08C18.521 18.6 18.9076 18.2133 19.3876 18.2133C19.8676 18.2133 20.2543 18.6 20.2543 19.08C20.241 19.56 19.8543 19.9467 19.3876 19.9467Z" fill="#FAF9F9"/>
</svg>
