<svg width="24" height="24" viewBox="0 0 24 24" fill="none" xmlns="http://www.w3.org/2000/svg">
<path opacity="0.4" d="M21.5 12C21.5 17.2467 17.2467 21.5 12 21.5C6.75329 21.5 2.5 17.2467 2.5 12C2.5 6.75329 6.75329 2.5 12 2.5C17.2467 2.5 21.5 6.75329 21.5 12Z" fill="#FAF9F9" stroke="#F8F9FA"/>
<path d="M12.25 11.25V11.75H12.75H16C16.1339 11.75 16.25 11.8661 16.25 12C16.25 12.1339 16.1339 12.25 16 12.25H12.75H12.25V12.75V16C12.25 16.1339 12.1339 16.25 12 16.25C11.8661 16.25 11.75 16.1339 11.75 16V12.75V12.25H11.25H8C7.86614 12.25 7.75 12.1339 7.75 12C7.75 11.8661 7.86614 11.75 8 11.75H11.25H11.75V11.25V8C11.75 7.86614 11.8661 7.75 12 7.75C12.1339 7.75 12.25 7.86614 12.25 8V11.25Z" fill="#FAF9F9" stroke="#F8F9FA"/>
</svg>
