<svg width="18" height="18" viewBox="0 0 18 18" fill="none" xmlns="http://www.w3.org/2000/svg">
<path d="M14.8728 6.52498L11.4753 3.12748C10.7628 2.41498 9.78035 2.03248 8.77535 2.08498L5.02535 2.26498C3.52535 2.33248 2.33285 3.52498 2.25785 5.01748L2.07785 8.76748C2.03285 9.77248 2.40785 10.755 3.12035 11.4675L6.51785 14.865C7.91285 16.26 10.1778 16.26 11.5803 14.865L14.8728 11.5725C16.2753 10.185 16.2753 7.91998 14.8728 6.52498ZM7.12535 9.28498C5.94035 9.28498 4.96535 8.31748 4.96535 7.12498C4.96535 5.93248 5.94035 4.96498 7.12535 4.96498C8.31035 4.96498 9.28535 5.93248 9.28535 7.12498C9.28535 8.31748 8.31035 9.28498 7.12535 9.28498ZM13.1478 10.1475L10.1478 13.1475C10.0353 13.26 9.89285 13.3125 9.75035 13.3125C9.60785 13.3125 9.46535 13.26 9.35285 13.1475C9.13535 12.93 9.13535 12.57 9.35285 12.3525L12.3528 9.35248C12.5703 9.13498 12.9303 9.13498 13.1478 9.35248C13.3653 9.56998 13.3653 9.92998 13.1478 10.1475Z" fill="white"/>
</svg>
