<svg width="46" height="47" viewBox="0 0 46 47" fill="none" xmlns="http://www.w3.org/2000/svg">
<g filter="url(#filter0_d_3496_4363)">
<g filter="url(#filter1_i_3496_4363)">
<path d="M34 17C34 23.9036 28.4036 29.5 21.5 29.5C14.5964 29.5 9 23.9036 9 17C9 10.0964 14.5964 4.5 21.5 4.5C28.4036 4.5 34 10.0964 34 17Z" fill="url(#paint0_linear_3496_4363)"/>
</g>
<g filter="url(#filter2_bii_3496_4363)">
<path fill-rule="evenodd" clip-rule="evenodd" d="M16.5 34.5C23.4036 34.5 29 28.9036 29 22C29 15.0964 23.4036 9.5 16.5 9.5C9.59644 9.5 4 15.0964 4 22C4 28.9036 9.59644 34.5 16.5 34.5ZM10.2121 15.4754C9.84597 15.1093 9.84597 14.5157 10.2121 14.1496C10.5782 13.7835 11.1718 13.7835 11.5379 14.1496L16.5 19.1117L21.4621 14.1496C21.8282 13.7835 22.4218 13.7835 22.7879 14.1496C23.154 14.5157 23.154 15.1093 22.7879 15.4754L17.8258 20.4375H19.9375C20.4553 20.4375 20.875 20.8572 20.875 21.375C20.875 21.8928 20.4553 22.3125 19.9375 22.3125H17.4375V25.4375H19.9375C20.4553 25.4375 20.875 25.8572 20.875 26.375C20.875 26.8928 20.4553 27.3125 19.9375 27.3125H17.4375V30.4375C17.4375 30.9553 17.0178 31.375 16.5 31.375C15.9822 31.375 15.5625 30.9553 15.5625 30.4375V27.3125H13.0625C12.5447 27.3125 12.125 26.8928 12.125 26.375C12.125 25.8572 12.5447 25.4375 13.0625 25.4375H15.5625V22.3125H13.0625C12.5447 22.3125 12.125 21.8928 12.125 21.375C12.125 20.8572 12.5447 20.4375 13.0625 20.4375H15.1742L10.2121 15.4754Z" fill="white" fill-opacity="0.4"/>
</g>
</g>
<defs>
<filter id="filter0_d_3496_4363" x="0" y="0.5" width="46" height="46" filterUnits="userSpaceOnUse" color-interpolation-filters="sRGB">
<feFlood flood-opacity="0" result="BackgroundImageFix"/>
<feColorMatrix in="SourceAlpha" type="matrix" values="0 0 0 0 0 0 0 0 0 0 0 0 0 0 0 0 0 0 127 0" result="hardAlpha"/>
<feOffset dx="4" dy="4"/>
<feGaussianBlur stdDeviation="4"/>
<feColorMatrix type="matrix" values="0 0 0 0 0 0 0 0 0 0 0 0 0 0 0 0 0 0 0.4 0"/>
<feBlend mode="normal" in2="BackgroundImageFix" result="effect1_dropShadow_3496_4363"/>
<feBlend mode="normal" in="SourceGraphic" in2="effect1_dropShadow_3496_4363" result="shape"/>
</filter>
<filter id="filter1_i_3496_4363" x="9" y="4.5" width="25" height="25" filterUnits="userSpaceOnUse" color-interpolation-filters="sRGB">
<feFlood flood-opacity="0" result="BackgroundImageFix"/>
<feBlend mode="normal" in="SourceGraphic" in2="BackgroundImageFix" result="shape"/>
<feColorMatrix in="SourceAlpha" type="matrix" values="0 0 0 0 0 0 0 0 0 0 0 0 0 0 0 0 0 0 127 0" result="hardAlpha"/>
<feOffset/>
<feGaussianBlur stdDeviation="4"/>
<feComposite in2="hardAlpha" operator="arithmetic" k2="-1" k3="1"/>
<feColorMatrix type="matrix" values="0 0 0 0 1 0 0 0 0 1 0 0 0 0 1 0 0 0 0.8 0"/>
<feBlend mode="normal" in2="shape" result="effect1_innerShadow_3496_4363"/>
</filter>
<filter id="filter2_bii_3496_4363" x="0" y="5.5" width="33" height="33" filterUnits="userSpaceOnUse" color-interpolation-filters="sRGB">
<feFlood flood-opacity="0" result="BackgroundImageFix"/>
<feGaussianBlur in="BackgroundImageFix" stdDeviation="2"/>
<feComposite in2="SourceAlpha" operator="in" result="effect1_backgroundBlur_3496_4363"/>
<feBlend mode="normal" in="SourceGraphic" in2="effect1_backgroundBlur_3496_4363" result="shape"/>
<feColorMatrix in="SourceAlpha" type="matrix" values="0 0 0 0 0 0 0 0 0 0 0 0 0 0 0 0 0 0 127 0" result="hardAlpha"/>
<feOffset/>
<feGaussianBlur stdDeviation="2"/>
<feComposite in2="hardAlpha" operator="arithmetic" k2="-1" k3="1"/>
<feColorMatrix type="matrix" values="0 0 0 0 1 0 0 0 0 1 0 0 0 0 1 0 0 0 1 0"/>
<feBlend mode="normal" in2="shape" result="effect2_innerShadow_3496_4363"/>
<feColorMatrix in="SourceAlpha" type="matrix" values="0 0 0 0 0 0 0 0 0 0 0 0 0 0 0 0 0 0 127 0" result="hardAlpha"/>
<feOffset dy="4"/>
<feGaussianBlur stdDeviation="4"/>
<feComposite in2="hardAlpha" operator="arithmetic" k2="-1" k3="1"/>
<feColorMatrix type="matrix" values="0 0 0 0 1 0 0 0 0 1 0 0 0 0 1 0 0 0 1 0"/>
<feBlend mode="normal" in2="effect2_innerShadow_3496_4363" result="effect3_innerShadow_3496_4363"/>
</filter>
<linearGradient id="paint0_linear_3496_4363" x1="21.5" y1="4.5" x2="21.5" y2="29.5" gradientUnits="userSpaceOnUse">
<stop stop-color="#31C8D2"/>
<stop offset="1" stop-color="#1AA6E1"/>
</linearGradient>
</defs>
</svg>
