<svg width="16" height="17" viewBox="0 0 16 17" fill="none" xmlns="http://www.w3.org/2000/svg">
<path d="M14.0471 3.98665C12.9738 3.87998 11.9004 3.79998 10.8204 3.73998V3.73331L10.6738 2.86665C10.5738 2.25331 10.4271 1.33331 8.8671 1.33331H7.12043C5.5671 1.33331 5.42043 2.21331 5.31376 2.85998L5.17376 3.71331C4.55376 3.75331 3.93376 3.79331 3.31376 3.85331L1.95376 3.98665C1.67376 4.01331 1.47376 4.25998 1.50043 4.53331C1.5271 4.80665 1.7671 5.00665 2.0471 4.97998L3.4071 4.84665C6.90043 4.49998 10.4204 4.63331 13.9538 4.98665C13.9738 4.98665 13.9871 4.98665 14.0071 4.98665C14.2604 4.98665 14.4804 4.79331 14.5071 4.53331C14.5271 4.25998 14.3271 4.01331 14.0471 3.98665Z" fill="white"/>
<path opacity="0.3991" d="M12.8192 5.92669C12.6592 5.76002 12.4392 5.66669 12.2125 5.66669H3.78585C3.55918 5.66669 3.33252 5.76002 3.17918 5.92669C3.02585 6.09335 2.93918 6.32002 2.95252 6.55335L3.36585 13.3934C3.43918 14.4067 3.53252 15.6734 5.85918 15.6734H10.1392C12.4658 15.6734 12.5592 14.4134 12.6325 13.3934L13.0458 6.56002C13.0592 6.32002 12.9725 6.09335 12.8192 5.92669Z" fill="white"/>
<path fill-rule="evenodd" clip-rule="evenodd" d="M6.38672 11.8333C6.38672 11.5572 6.61058 11.3333 6.88672 11.3333H9.10672C9.38286 11.3333 9.60672 11.5572 9.60672 11.8333C9.60672 12.1095 9.38286 12.3333 9.10672 12.3333H6.88672C6.61058 12.3333 6.38672 12.1095 6.38672 11.8333Z" fill="white"/>
<path fill-rule="evenodd" clip-rule="evenodd" d="M5.83398 9.16669C5.83398 8.89054 6.05784 8.66669 6.33398 8.66669H9.66732C9.94346 8.66669 10.1673 8.89054 10.1673 9.16669C10.1673 9.44283 9.94346 9.66669 9.66732 9.66669H6.33398C6.05784 9.66669 5.83398 9.44283 5.83398 9.16669Z" fill="white"/>
</svg>
