<svg width="32" height="32" viewBox="0 0 32 32" fill="none" xmlns="http://www.w3.org/2000/svg">
<path opacity="0.4" d="M29.3327 10.4133V21.5866C29.3327 26.44 26.4394 29.3333 21.586 29.3333H10.4127C5.55935 29.3333 2.66602 26.44 2.66602 21.5866V10.4133C2.66602 9.73329 2.71935 9.07996 2.83935 8.47996C3.51935 4.81329 6.22602 2.67996 10.3593 2.66663H21.6393C25.7727 2.67996 28.4794 4.81329 29.1594 8.47996C29.2794 9.07996 29.3327 9.73329 29.3327 10.4133Z" fill="#FAF9F9"/>
<path d="M29.3327 10.4133V10.48H2.66602V10.4133C2.66602 9.73329 2.71935 9.07996 2.83935 8.47996H10.3593V2.66663H12.3594V8.47996H19.6393V2.66663H21.6393V8.47996H29.1594C29.2794 9.07996 29.3327 9.73329 29.3327 10.4133Z" fill="#FAF9F9"/>
<path d="M19.2541 16.9599L16.4808 15.3599C15.4541 14.7733 14.4675 14.6933 13.6941 15.1333C12.9208 15.5733 12.4941 16.4799 12.4941 17.6533V20.8533C12.4941 22.0266 12.9208 22.9333 13.6941 23.3733C14.0275 23.5599 14.4008 23.6533 14.7875 23.6533C15.3208 23.6533 15.8941 23.4799 16.4808 23.1466L19.2541 21.5466C20.2808 20.9599 20.8408 20.1333 20.8408 19.2399C20.8408 18.3466 20.2675 17.5599 19.2541 16.9599Z" fill="#FAF9F9"/>
</svg>
